<?xml version="1.0" standalone="no"?>
<!DOCTYPE svg PUBLIC "-//W3C//DTD SVG 20010904//EN"
 "http://www.w3.org/TR/2001/REC-SVG-20010904/DTD/svg10.dtd">
<svg version="1.0" xmlns="http://www.w3.org/2000/svg"
 width="228.000000pt" height="228.000000pt" viewBox="0 0 228.000000 228.000000"
 preserveAspectRatio="xMidYMid meet">
<metadata>
Created by potrace 1.11, written by Peter Selinger 2001-2013
</metadata>
<g transform="translate(0.000000,228.000000) scale(0.100000,-0.100000)"
fill="#000000" stroke="none">
<path d="M952 2265 c-487 -87 -865 -471 -940 -955 -9 -58 -9 -282 0 -340 72
-458 401 -817 858 -936 93 -25 123 -28 265 -28 166 0 234 10 375 56 325 106
601 387 712 723 11 33 21 65 22 70 2 6 9 37 16 70 10 40 14 116 14 225 -1 146
-4 177 -28 265 -114 420 -417 724 -833 831 -118 31 -342 40 -461 19z"/>
</g>
</svg>
