<?xml version="1.0" encoding="iso-8859-1"?>
<!-- Generator: Adobe Illustrator 19.0.0, SVG Export Plug-In . SVG Version: 6.00 Build 0)  -->
<svg version="1.1" id="Capa_1" xmlns="http://www.w3.org/2000/svg" xmlns:xlink="http://www.w3.org/1999/xlink" x="0px" y="0px"
	 viewBox="0 0 512 512" style="enable-background:new 0 0 512 512;" xml:space="preserve">
<path style="fill:#ECF0F1;" d="M483.31,512H28.69C12.844,512,0,499.156,0,483.31V105.931h512V483.31
	C512,499.156,499.156,512,483.31,512z"/>
<path style="fill:#687492;" d="M512,105.931H0V28.69C0,12.844,12.844,0,28.69,0H483.31C499.156,0,512,12.844,512,28.69V105.931z"/>
<rect x="35.31" y="35.31" style="fill:#E64C3C;" width="35.31" height="35.31"/>
<rect x="105.931" y="35.31" style="fill:#F0C419;" width="35.31" height="35.31"/>
<rect x="176.552" y="35.31" style="fill:#24AE5F;" width="35.31" height="35.31"/>
<path style="fill:#35495E;" d="M256,512H30.835C13.806,512,0,498.194,0,481.165V105.931h256V512z"/>
<path style="fill:#8697CB;" d="M158.897,158.897H35.31c-4.873,0-8.828-3.946-8.828-8.828s3.955-8.828,8.828-8.828h123.586
	c4.873,0,8.828,3.946,8.828,8.828S163.769,158.897,158.897,158.897z"/>
<path style="fill:#F0C419;" d="M220.69,158.897h-26.483c-4.873,0-8.828-3.946-8.828-8.828s3.955-8.828,8.828-8.828h26.483
	c4.873,0,8.828,3.946,8.828,8.828S225.562,158.897,220.69,158.897z"/>
<path style="fill:#24AE5F;" d="M220.69,194.207H97.103c-4.873,0-8.828-3.946-8.828-8.828c0-4.882,3.955-8.828,8.828-8.828H220.69
	c4.873,0,8.828,3.946,8.828,8.828C229.517,190.261,225.562,194.207,220.69,194.207z"/>
<path style="fill:#E64C3C;" d="M61.793,194.207H35.31c-4.873,0-8.828-3.946-8.828-8.828c0-4.882,3.955-8.828,8.828-8.828h26.483
	c4.873,0,8.828,3.946,8.828,8.828C70.621,190.261,66.666,194.207,61.793,194.207z"/>
<path style="fill:#F29C1F;" d="M158.897,229.517H35.31c-4.873,0-8.828-3.946-8.828-8.828s3.955-8.828,8.828-8.828h123.586
	c4.873,0,8.828,3.946,8.828,8.828S163.769,229.517,158.897,229.517z"/>
<path style="fill:#894B9D;" d="M220.69,229.517h-26.483c-4.873,0-8.828-3.946-8.828-8.828s3.955-8.828,8.828-8.828h26.483
	c4.873,0,8.828,3.946,8.828,8.828S225.562,229.517,220.69,229.517z"/>
<path style="fill:#E64C3C;" d="M220.69,264.828H97.103c-4.873,0-8.828-3.946-8.828-8.828s3.955-8.828,8.828-8.828H220.69
	c4.873,0,8.828,3.946,8.828,8.828S225.562,264.828,220.69,264.828z"/>
<path style="fill:#FB7B76;" d="M61.793,264.828H35.31c-4.873,0-8.828-3.946-8.828-8.828s3.955-8.828,8.828-8.828h26.483
	c4.873,0,8.828,3.946,8.828,8.828S66.666,264.828,61.793,264.828z"/>
<path style="fill:#8697CB;" d="M158.897,300.138H35.31c-4.873,0-8.828-3.946-8.828-8.828c0-4.882,3.955-8.828,8.828-8.828h123.586
	c4.873,0,8.828,3.946,8.828,8.828C167.724,296.192,163.769,300.138,158.897,300.138z"/>
<path style="fill:#24AE5F;" d="M220.69,300.138h-26.483c-4.873,0-8.828-3.946-8.828-8.828c0-4.882,3.955-8.828,8.828-8.828h26.483
	c4.873,0,8.828,3.946,8.828,8.828C229.517,296.192,225.562,300.138,220.69,300.138z"/>
<path style="fill:#F29C1F;" d="M220.69,335.448H97.103c-4.873,0-8.828-3.946-8.828-8.828c0-4.882,3.955-8.828,8.828-8.828H220.69
	c4.873,0,8.828,3.946,8.828,8.828C229.517,331.502,225.562,335.448,220.69,335.448z"/>
<path style="fill:#F0C419;" d="M61.793,335.448H35.31c-4.873,0-8.828-3.946-8.828-8.828c0-4.882,3.955-8.828,8.828-8.828h26.483
	c4.873,0,8.828,3.946,8.828,8.828C70.621,331.502,66.666,335.448,61.793,335.448z"/>
<path style="fill:#FB7B76;" d="M158.897,370.759H35.31c-4.873,0-8.828-3.946-8.828-8.828c0-4.882,3.955-8.828,8.828-8.828h123.586
	c4.873,0,8.828,3.946,8.828,8.828C167.724,366.813,163.769,370.759,158.897,370.759z"/>
<path style="fill:#894B9D;" d="M220.69,370.759h-26.483c-4.873,0-8.828-3.946-8.828-8.828c0-4.882,3.955-8.828,8.828-8.828h26.483
	c4.873,0,8.828,3.946,8.828,8.828C229.517,366.813,225.562,370.759,220.69,370.759z"/>
<path style="fill:#F0C419;" d="M220.69,406.069H97.103c-4.873,0-8.828-3.946-8.828-8.828c0-4.882,3.955-8.828,8.828-8.828H220.69
	c4.873,0,8.828,3.946,8.828,8.828C229.517,402.123,225.562,406.069,220.69,406.069z"/>
<path style="fill:#E64C3C;" d="M61.793,406.069H35.31c-4.873,0-8.828-3.946-8.828-8.828c0-4.882,3.955-8.828,8.828-8.828h26.483
	c4.873,0,8.828,3.946,8.828,8.828C70.621,402.123,66.666,406.069,61.793,406.069z"/>
<path style="fill:#8697CB;" d="M158.897,441.379H35.31c-4.873,0-8.828-3.946-8.828-8.828c0-4.882,3.955-8.828,8.828-8.828h123.586
	c4.873,0,8.828,3.946,8.828,8.828C167.724,437.433,163.769,441.379,158.897,441.379z"/>
<path style="fill:#4482C3;" d="M220.69,441.379h-26.483c-4.873,0-8.828-3.946-8.828-8.828c0-4.882,3.955-8.828,8.828-8.828h26.483
	c4.873,0,8.828,3.946,8.828,8.828C229.517,437.433,225.562,441.379,220.69,441.379z"/>
<path style="fill:#E64C3C;" d="M220.69,476.69H97.103c-4.873,0-8.828-3.946-8.828-8.828c0-4.882,3.955-8.828,8.828-8.828H220.69
	c4.873,0,8.828,3.946,8.828,8.828C229.517,472.744,225.562,476.69,220.69,476.69z"/>
<g>
	<path style="fill:#F0C419;" d="M61.793,476.69H35.31c-4.873,0-8.828-3.946-8.828-8.828c0-4.882,3.955-8.828,8.828-8.828h26.483
		c4.873,0,8.828,3.946,8.828,8.828C70.621,472.744,66.666,476.69,61.793,476.69z"/>
	<rect x="256" y="150.069" style="fill:#F0C419;" width="211.862" height="176.552"/>
</g>
<g>
	<path style="fill:#FFFFFF;" d="M300.138,273.655c-2.26,0-4.52-0.865-6.241-2.586c-3.452-3.452-3.452-9.031,0-12.482l35.31-35.31
		c3.443-3.452,9.039-3.452,12.482,0c3.452,3.452,3.452,9.031,0,12.482l-35.31,35.31C304.658,272.79,302.398,273.655,300.138,273.655
		z"/>
	<path style="fill:#FFFFFF;" d="M370.759,273.655c-2.26,0-4.52-0.865-6.241-2.586l-35.31-35.31c-3.452-3.452-3.452-9.031,0-12.482
		c3.443-3.452,9.039-3.452,12.482,0l35.31,35.31c3.452,3.452,3.452,9.031,0,12.482C375.278,272.79,373.018,273.655,370.759,273.655z
		"/>
	<path style="fill:#FFFFFF;" d="M353.103,256c-2.26,0-4.52-0.865-6.241-2.586c-3.452-3.452-3.452-9.031,0-12.482l35.31-35.31
		c3.443-3.452,9.039-3.452,12.482,0c3.452,3.452,3.452,9.031,0,12.482l-35.31,35.31C357.623,255.135,355.363,256,353.103,256z"/>
	<path style="fill:#FFFFFF;" d="M423.724,256c-2.26,0-4.52-0.865-6.241-2.586l-35.31-35.31c-3.452-3.452-3.452-9.031,0-12.482
		c3.443-3.452,9.039-3.452,12.482,0l35.31,35.31c3.452,3.452,3.452,9.031,0,12.482C428.244,255.135,425.984,256,423.724,256z"/>
</g>
<g>
	<rect x="256" y="370.759" style="fill:#4FB96F;" width="88.276" height="97.103"/>
	<rect x="379.586" y="370.759" style="fill:#4FB96F;" width="88.276" height="97.103"/>
</g>
<g>
</g>
<g>
</g>
<g>
</g>
<g>
</g>
<g>
</g>
<g>
</g>
<g>
</g>
<g>
</g>
<g>
</g>
<g>
</g>
<g>
</g>
<g>
</g>
<g>
</g>
<g>
</g>
<g>
</g>
</svg>
