<?xml version="1.0" encoding="UTF-8" standalone="no"?><!-- Generator: Gravit.io --><svg xmlns="http://www.w3.org/2000/svg" xmlns:xlink="http://www.w3.org/1999/xlink" style="isolation:isolate" viewBox="0 0 1000 415" width="1000pt" height="415pt"><defs><clipPath id="_clipPath_ACIHLj0LFTimmrzbhVuyX0sGiwKcujml"><rect width="1000" height="415"/></clipPath></defs><g clip-path="url(#_clipPath_ACIHLj0LFTimmrzbhVuyX0sGiwKcujml)"><g><path d=" M 397.847 93.34 C 398.588 94.08 399.56 94.452 400.532 94.452 C 401.504 94.452 402.476 94.082 403.219 93.34 C 404.702 91.857 404.702 89.451 403.219 87.968 L 393.997 78.746 L 403.219 69.525 C 404.702 68.04 404.702 65.637 403.219 64.154 C 401.736 62.671 399.33 62.671 397.847 64.154 L 385.94 76.061 C 385.228 76.774 384.828 77.74 384.828 78.746 C 384.828 79.754 385.228 80.72 385.94 81.432 L 397.847 93.34 Z " fill="rgb(101,201,255)"/><path d=" M 435.537 78.746 L 426.315 87.968 C 424.832 89.451 424.832 91.857 426.317 93.34 C 427.057 94.08 428.029 94.452 429.001 94.452 C 429.973 94.452 430.946 94.08 431.686 93.34 L 443.595 81.43 C 445.078 79.948 445.078 77.542 443.595 76.061 L 431.686 64.152 C 430.203 62.669 427.799 62.669 426.317 64.152 C 424.832 65.637 424.832 68.04 426.317 69.523 L 435.537 78.746 Z " fill="rgb(101,201,255)"/><path d=" M 409.105 94.189 C 409.561 94.367 410.032 94.452 410.493 94.452 C 412.01 94.452 413.441 93.538 414.029 92.043 L 423.384 68.226 C 424.153 66.274 423.19 64.071 421.238 63.302 C 419.288 62.536 417.082 63.496 416.316 65.449 L 406.959 89.265 C 406.193 91.217 407.153 93.423 409.105 94.189 Z " fill="rgb(101,201,255)"/><path d=" M 390.775 116.734 L 416.362 116.734 C 418.458 116.734 420.159 115.033 420.159 112.935 C 420.159 110.838 418.458 109.137 416.362 109.137 L 390.775 109.137 C 388.677 109.137 386.978 110.838 386.978 112.935 C 386.978 115.033 388.677 116.734 390.775 116.734 Z " fill="rgb(101,201,255)"/><path d=" M 475.292 109.137 L 430.308 109.137 C 428.211 109.137 426.511 110.838 426.511 112.935 C 426.511 115.033 428.211 116.734 430.308 116.734 L 475.292 116.734 C 477.39 116.734 479.091 115.033 479.091 112.935 C 479.091 110.838 477.39 109.137 475.292 109.137 Z " fill="rgb(101,201,255)"/><path d=" M 390.775 132.754 L 401.675 132.754 C 403.771 132.754 405.472 131.053 405.472 128.954 C 405.472 126.857 403.771 125.157 401.675 125.157 L 390.775 125.157 C 388.677 125.157 386.978 126.857 386.978 128.954 C 386.978 131.053 388.677 132.754 390.775 132.754 Z " fill="rgb(101,201,255)"/><path d=" M 461.397 125.157 C 459.298 125.157 457.599 126.857 457.599 128.954 C 457.599 131.053 459.298 132.754 461.397 132.754 L 468.033 132.754 C 470.132 132.754 471.833 131.053 471.833 128.954 C 471.833 126.857 470.132 125.157 468.033 125.157 L 461.397 125.157 Z " fill="rgb(101,201,255)"/><path d=" M 451.4 128.954 C 451.4 126.857 449.699 125.157 447.603 125.157 L 415.001 125.157 C 412.903 125.157 411.204 126.857 411.204 128.954 C 411.204 131.053 412.903 132.754 415.001 132.754 L 447.603 132.754 C 449.699 132.754 451.4 131.053 451.4 128.954 Z " fill="rgb(101,201,255)"/><path d=" M 476.28 128.954 C 476.28 131.053 477.98 132.754 480.077 132.754 L 492.509 132.754 C 494.608 132.754 496.308 131.053 496.308 128.954 C 496.308 126.857 494.608 125.157 492.509 125.157 L 480.077 125.157 C 477.98 125.157 476.28 126.857 476.28 128.954 Z " fill="rgb(101,201,255)"/><path d=" M 455.595 81.793 L 468.708 81.793 C 470.807 81.793 472.508 80.092 472.508 77.993 C 472.508 75.897 470.807 74.196 468.708 74.196 L 455.595 74.196 C 453.497 74.196 451.796 75.897 451.796 77.993 C 451.796 80.092 453.497 81.793 455.595 81.793 Z " fill="rgb(101,201,255)"/><path d=" M 483.395 81.793 L 563.405 81.793 C 565.504 81.793 567.203 80.092 567.203 77.993 C 567.203 75.897 565.504 74.196 563.405 74.196 L 483.395 74.196 C 481.297 74.196 479.596 75.897 479.596 77.993 C 479.596 80.092 481.297 81.793 483.395 81.793 L 483.395 81.793 Z " fill="rgb(101,201,255)"/><path d=" M 551.253 90.906 L 518.842 90.906 C 516.745 90.906 515.044 92.607 515.044 94.706 C 515.044 96.802 516.745 98.503 518.842 98.503 L 551.253 98.503 C 553.349 98.503 555.05 96.802 555.05 94.706 C 555.05 92.607 553.349 90.906 551.253 90.906 Z " fill="rgb(101,201,255)"/><path d=" M 506.689 90.906 L 495.548 90.906 C 493.449 90.906 491.751 92.607 491.751 94.706 C 491.751 96.802 493.449 98.503 495.548 98.503 L 506.689 98.503 C 508.788 98.503 510.486 96.802 510.486 94.706 C 510.486 92.607 508.788 90.906 506.689 90.906 Z " fill="rgb(101,201,255)"/><path d=" M 455.595 98.503 L 482.888 98.503 C 484.985 98.503 486.686 96.802 486.686 94.706 C 486.686 92.607 484.985 90.906 482.888 90.906 L 455.595 90.906 C 453.497 90.906 451.796 92.607 451.796 94.706 C 451.796 96.802 453.497 98.503 455.595 98.503 Z " fill="rgb(101,201,255)"/><path d=" M 447.65 141.042 L 422.066 141.042 C 419.967 141.042 418.266 142.742 418.266 144.839 C 418.266 146.936 419.967 148.636 422.066 148.636 L 447.65 148.636 C 449.747 148.636 451.448 146.936 451.448 144.839 C 451.448 142.742 449.747 141.042 447.65 141.042 Z " fill="rgb(101,201,255)"/><path d=" M 410.432 141.042 L 390.775 141.042 C 388.677 141.042 386.978 142.742 386.978 144.839 C 386.978 146.936 388.677 148.636 390.775 148.636 L 410.432 148.636 C 412.53 148.636 414.229 146.936 414.229 144.839 C 414.229 142.742 412.53 141.042 410.432 141.042 Z " fill="rgb(101,201,255)"/><path d=" M 494.029 141.042 L 460.607 141.042 C 458.508 141.042 456.809 142.742 456.809 144.839 C 456.809 146.936 458.508 148.636 460.607 148.636 L 494.029 148.636 C 496.126 148.636 497.827 146.936 497.827 144.839 C 497.827 142.742 496.126 141.042 494.029 141.042 L 494.029 141.042 Z " fill="rgb(101,201,255)"/><path d=" M 539.229 121.532 L 520.952 121.532 C 518.855 121.532 517.155 123.232 517.155 125.329 C 517.155 127.428 518.855 129.128 520.952 129.128 L 539.229 129.128 C 541.327 129.128 543.026 127.428 543.026 125.329 C 543.026 123.232 541.327 121.532 539.229 121.532 L 539.229 121.532 Z " fill="rgb(101,201,255)"/><path d=" M 570.943 129.128 L 596.743 129.128 C 598.842 129.128 600.542 127.428 600.542 125.329 C 600.542 123.232 598.842 121.532 596.743 121.532 L 570.943 121.532 C 568.844 121.532 567.145 123.232 567.145 125.329 C 567.145 127.428 568.846 129.128 570.943 129.128 Z " fill="rgb(101,201,255)"/><path d=" M 558.042 121.532 L 552.13 121.532 C 550.031 121.532 548.33 123.232 548.33 125.329 C 548.33 127.428 550.031 129.128 552.13 129.128 L 558.042 129.128 C 560.14 129.128 561.839 127.428 561.839 125.329 C 561.839 123.232 560.14 121.532 558.042 121.532 Z " fill="rgb(101,201,255)"/><path d=" M 520.952 170.516 L 539.229 170.516 C 541.327 170.516 543.026 168.818 543.026 166.719 C 543.026 164.622 541.327 162.922 539.229 162.922 L 520.952 162.922 C 518.855 162.922 517.155 164.622 517.155 166.719 C 517.155 168.818 518.855 170.516 520.952 170.516 L 520.952 170.516 Z " fill="rgb(101,201,255)"/><path d=" M 570.943 170.516 L 596.743 170.516 C 598.842 170.516 600.542 168.818 600.542 166.719 C 600.542 164.622 598.842 162.922 596.743 162.922 L 570.943 162.922 C 568.844 162.922 567.145 164.622 567.145 166.719 C 567.145 168.818 568.846 170.516 570.943 170.516 Z " fill="rgb(101,201,255)"/><path d=" M 552.13 170.516 L 558.042 170.516 C 560.14 170.516 561.841 168.818 561.841 166.719 C 561.841 164.622 560.14 162.922 558.042 162.922 L 552.13 162.922 C 550.031 162.922 548.332 164.622 548.332 166.719 C 548.332 168.818 550.031 170.516 552.13 170.516 Z " fill="rgb(101,201,255)"/><path d=" M 539.229 204.311 L 520.952 204.311 C 518.855 204.311 517.155 206.012 517.155 208.109 C 517.155 210.206 518.855 211.906 520.952 211.906 L 539.229 211.906 C 541.327 211.906 543.026 210.206 543.026 208.109 C 543.026 206.012 541.327 204.311 539.229 204.311 L 539.229 204.311 Z " fill="rgb(101,201,255)"/><path d=" M 596.743 204.311 L 570.943 204.311 C 568.844 204.311 567.145 206.012 567.145 208.109 C 567.145 210.206 568.844 211.906 570.943 211.906 L 596.743 211.906 C 598.842 211.906 600.542 210.206 600.542 208.109 C 600.542 206.012 598.842 204.311 596.743 204.311 L 596.743 204.311 Z " fill="rgb(101,201,255)"/><path d=" M 558.042 204.311 L 552.13 204.311 C 550.031 204.311 548.33 206.012 548.33 208.109 C 548.33 210.206 550.031 211.906 552.13 211.906 L 558.042 211.906 C 560.14 211.906 561.839 210.206 561.839 208.109 C 561.839 206.012 560.14 204.311 558.042 204.311 Z " fill="rgb(101,201,255)"/><path d=" M 610.759 -1.213 L 384.679 -1.213 C 375.463 -1.213 367.963 6.285 367.963 15.504 L 367.963 199.273 C 367.963 208.489 375.463 215.987 384.679 215.987 L 398.972 215.987 C 401.069 215.987 402.77 214.288 402.77 212.19 C 402.77 210.093 401.069 208.392 398.972 208.392 L 384.679 208.392 C 379.65 208.392 375.56 204.302 375.56 199.273 L 375.56 184.865 L 513.929 184.865 L 513.929 191.41 L 510.918 191.41 C 506.798 191.41 503.448 194.76 503.448 198.881 L 503.448 208.392 L 422.064 208.392 C 419.967 208.392 418.266 210.093 418.266 212.19 C 418.266 214.288 419.967 215.987 422.064 215.987 L 458.581 215.987 L 458.581 229.609 L 447.113 229.609 C 439.463 229.609 433.24 235.834 433.24 243.482 L 433.24 251.687 C 433.24 255.177 436.079 258.016 439.57 258.016 L 555.577 258.016 C 559.067 258.016 561.907 255.177 561.907 251.687 L 561.907 243.482 C 561.907 235.834 555.684 229.609 548.033 229.609 L 536.566 229.609 L 536.566 224.807 L 606.779 224.807 C 610.897 224.807 614.247 221.457 614.247 217.337 L 614.247 215.549 C 621.65 213.831 627.184 207.188 627.184 199.273 L 627.471 15.502 C 627.473 6.285 619.975 -1.213 610.759 -1.213 L 610.759 -1.213 Z  M 511.045 175.823 L 511.045 157.617 L 606.652 157.617 L 606.652 175.823 L 511.045 175.823 Z  M 521.524 150.02 L 521.524 142.03 L 596.171 142.03 L 596.171 150.02 L 521.524 150.02 Z  M 596.171 183.418 L 596.171 191.41 L 521.524 191.41 L 521.524 183.418 L 596.171 183.418 Z  M 466.176 215.987 L 503.448 215.987 L 503.448 217.339 C 503.448 221.457 506.798 224.807 510.918 224.807 L 528.971 224.807 L 528.971 229.609 L 466.176 229.609 L 466.176 215.987 Z  M 548.035 237.206 C 551.496 237.206 554.312 240.021 554.312 243.482 L 554.312 250.422 L 440.835 250.422 L 440.835 243.482 C 440.835 240.021 443.653 237.206 447.113 237.206 L 548.035 237.206 Z  M 606.652 217.211 L 511.045 217.211 L 511.045 199.007 L 606.652 199.007 L 606.652 217.211 Z  M 619.589 199.273 C 619.589 202.951 617.395 206.121 614.249 207.56 L 614.249 198.879 C 614.249 194.76 610.897 191.41 606.779 191.41 L 603.768 191.41 L 603.768 184.865 L 619.589 184.865 L 619.589 199.273 Z  M 619.589 177.27 L 614.125 177.27 C 614.202 176.84 614.249 157.491 614.249 157.491 C 614.249 153.37 610.897 150.02 606.779 150.02 L 603.768 150.02 L 603.768 142.03 L 606.779 142.03 C 610.897 142.03 614.249 138.678 614.249 134.559 L 614.249 116.101 C 614.249 111.982 610.897 108.63 606.779 108.63 L 585.327 108.63 C 583.228 108.63 581.529 110.331 581.529 112.43 C 581.529 114.527 583.228 116.227 585.327 116.227 L 606.652 116.227 L 606.652 134.433 L 511.045 134.433 L 511.045 116.227 L 561.695 116.227 C 563.793 116.227 565.492 114.527 565.492 112.43 C 565.492 110.331 563.793 108.63 561.695 108.63 L 510.918 108.63 C 506.798 108.63 503.448 111.982 503.448 116.101 L 503.448 134.559 C 503.448 138.678 506.798 142.03 510.918 142.03 L 513.929 142.03 L 513.929 150.02 L 510.918 150.02 C 506.798 150.02 503.448 153.372 503.448 157.491 C 503.448 157.491 503.495 176.84 503.573 177.27 L 375.56 177.27 L 375.56 50.451 L 619.589 50.451 L 619.589 177.27 Z  M 619.589 42.854 L 375.839 42.854 L 375.839 15.502 C 375.839 10.475 379.929 6.384 384.958 6.384 L 610.47 6.384 C 615.499 6.384 619.589 10.475 619.589 15.504 L 619.589 42.854 Z " fill="rgb(101,201,255)"/><path d=" M 395.972 13.365 C 389.827 13.365 384.828 18.364 384.828 24.51 C 384.828 30.656 389.827 35.657 395.972 35.657 C 402.118 35.657 407.119 30.656 407.119 24.51 C 407.119 18.364 402.118 13.365 395.972 13.365 Z  M 395.972 28.06 C 394.016 28.06 392.423 26.468 392.423 24.51 C 392.423 22.554 394.016 20.96 395.972 20.96 C 397.931 20.96 399.522 22.554 399.522 24.51 C 399.522 26.468 397.931 28.06 395.972 28.06 Z " fill="rgb(101,201,255)"/><path d=" M 424.35 13.365 C 418.205 13.365 413.204 18.364 413.204 24.51 C 413.204 30.656 418.205 35.657 424.35 35.657 C 430.496 35.657 435.495 30.656 435.495 24.51 C 435.495 18.364 430.494 13.365 424.35 13.365 Z  M 424.35 28.06 C 422.392 28.06 420.801 26.468 420.801 24.51 C 420.801 22.554 422.392 20.96 424.35 20.96 C 426.307 20.96 427.9 22.554 427.9 24.51 C 427.9 26.468 426.307 28.06 424.35 28.06 Z " fill="rgb(101,201,255)"/><path d=" M 452.727 13.365 C 446.581 13.365 441.582 18.364 441.582 24.51 C 441.582 30.656 446.581 35.657 452.727 35.657 C 458.872 35.657 463.873 30.656 463.873 24.51 C 463.873 18.364 458.872 13.365 452.727 13.365 Z  M 452.727 28.06 C 450.77 28.06 449.177 26.468 449.177 24.51 C 449.177 22.554 450.77 20.96 452.727 20.96 C 454.685 20.96 456.277 22.554 456.277 24.51 C 456.277 26.468 454.685 28.06 452.727 28.06 Z " fill="rgb(101,201,255)"/></g><path d=" M 443.708 258.016 C 443.708 268.249 441.317 272.767 438.228 275.278 C 435.142 277.781 430.439 278.572 425.104 279.306 C 419.766 280.044 413.809 280.728 408.875 284.681 C 404.78 287.961 401.952 293.389 401.125 301.528 L 334.77 301.528 C 327.493 301.528 321.54 307.482 321.54 314.758 L 321.54 380.905 C 321.54 388.182 327.493 394.135 334.77 394.135 L 473.679 394.135 C 480.956 394.135 486.909 388.182 486.909 380.905 L 486.909 314.758 C 486.909 307.482 480.956 301.528 473.679 301.528 L 407.843 301.528 C 408.554 295.119 410.542 291.824 413.009 289.85 C 416.085 287.383 420.682 286.658 426.033 285.921 C 431.381 285.187 437.427 284.462 442.362 280.444 C 447.296 276.425 450.323 269.348 450.323 258.016 L 443.708 258.016 Z  M 334.77 308.143 L 473.679 308.143 C 477.374 308.143 480.294 311.063 480.294 314.758 L 480.294 380.905 C 480.294 384.6 477.374 387.52 473.679 387.52 L 334.77 387.52 C 331.075 387.52 328.155 384.6 328.155 380.905 L 328.155 314.758 C 328.155 311.063 331.075 308.143 334.77 308.143 Z  M 338.077 324.373 L 338.077 331.602 C 338.077 333.258 339.421 334.602 341.077 334.602 L 348.306 334.602 C 349.962 334.602 351.306 333.258 351.306 331.602 L 351.306 324.373 C 351.306 322.717 349.962 321.373 348.306 321.373 L 341.077 321.373 C 339.421 321.373 338.077 322.717 338.077 324.373 Z  M 357.921 324.373 L 357.921 331.602 C 357.921 333.258 359.265 334.602 360.921 334.602 L 368.151 334.602 C 369.806 334.602 371.151 333.258 371.151 331.602 L 371.151 324.373 C 371.151 322.717 369.806 321.373 368.151 321.373 L 360.921 321.373 C 359.265 321.373 357.921 322.717 357.921 324.373 Z  M 377.765 324.373 L 377.765 331.602 C 377.765 333.258 379.11 334.602 380.765 334.602 L 387.995 334.602 C 389.651 334.602 390.995 333.258 390.995 331.602 L 390.995 324.373 C 390.995 322.717 389.651 321.373 387.995 321.373 L 380.765 321.373 C 379.11 321.373 377.765 322.717 377.765 324.373 Z  M 397.61 324.373 L 397.61 331.602 C 397.61 333.258 398.954 334.602 400.61 334.602 L 407.839 334.602 C 409.495 334.602 410.839 333.258 410.839 331.602 L 410.839 324.373 C 410.839 322.717 409.495 321.373 407.839 321.373 L 400.61 321.373 C 398.954 321.373 397.61 322.717 397.61 324.373 Z  M 417.454 324.373 L 417.454 331.602 C 417.454 333.258 418.798 334.602 420.454 334.602 L 427.683 334.602 C 429.339 334.602 430.683 333.258 430.683 331.602 L 430.683 324.373 C 430.683 322.717 429.339 321.373 427.683 321.373 L 420.454 321.373 C 418.798 321.373 417.454 322.717 417.454 324.373 Z  M 437.298 324.373 L 437.298 331.602 C 437.298 333.258 438.642 334.602 440.298 334.602 L 447.528 334.602 C 449.183 334.602 450.528 333.258 450.528 331.602 L 450.528 324.373 C 450.528 322.717 449.183 321.373 447.528 321.373 L 440.298 321.373 C 438.642 321.373 437.298 322.717 437.298 324.373 Z  M 457.142 324.373 L 457.142 331.602 C 457.142 333.258 458.487 334.602 460.142 334.602 L 467.372 334.602 C 469.028 334.602 470.372 333.258 470.372 331.602 L 470.372 324.373 C 470.372 322.717 469.028 321.373 467.372 321.373 L 460.142 321.373 C 458.487 321.373 457.142 322.717 457.142 324.373 Z  M 338.077 344.217 L 338.077 351.446 C 338.077 353.102 339.421 354.446 341.077 354.446 L 358.229 354.446 C 359.884 354.446 361.229 353.102 361.229 351.446 L 361.229 344.217 C 361.229 342.561 359.884 341.217 358.229 341.217 L 341.077 341.217 C 339.421 341.217 338.077 342.561 338.077 344.217 Z  M 367.843 344.217 L 367.843 351.446 C 367.843 353.102 369.188 354.446 370.843 354.446 L 378.073 354.446 C 379.729 354.446 381.073 353.102 381.073 351.446 L 381.073 344.217 C 381.073 342.561 379.729 341.217 378.073 341.217 L 370.843 341.217 C 369.188 341.217 367.843 342.561 367.843 344.217 Z  M 387.688 344.217 L 387.688 351.446 C 387.688 353.102 389.032 354.446 390.688 354.446 L 397.917 354.446 C 399.573 354.446 400.917 353.102 400.917 351.446 L 400.917 344.217 C 400.917 342.561 399.573 341.217 397.917 341.217 L 390.688 341.217 C 389.032 341.217 387.688 342.561 387.688 344.217 Z  M 407.532 344.217 L 407.532 351.446 C 407.532 353.102 408.876 354.446 410.532 354.446 L 417.761 354.446 C 419.417 354.446 420.761 353.102 420.761 351.446 L 420.761 344.217 C 420.761 342.561 419.417 341.217 417.761 341.217 L 410.532 341.217 C 408.876 341.217 407.532 342.561 407.532 344.217 Z  M 427.376 344.217 L 427.376 351.446 C 427.376 353.102 428.72 354.446 430.376 354.446 L 437.606 354.446 C 439.261 354.446 440.606 353.102 440.606 351.446 L 440.606 344.217 C 440.606 342.561 439.261 341.217 437.606 341.217 L 430.376 341.217 C 428.72 341.217 427.376 342.561 427.376 344.217 Z  M 447.22 344.217 L 447.22 351.446 C 447.22 353.102 448.565 354.446 450.22 354.446 L 467.372 354.446 C 469.028 354.446 470.372 353.102 470.372 351.446 L 470.372 344.217 C 470.372 342.561 469.028 341.217 467.372 341.217 L 450.22 341.217 C 448.565 341.217 447.22 342.561 447.22 344.217 Z  M 338.077 364.061 L 338.077 371.291 C 338.077 372.946 339.421 374.291 341.077 374.291 L 348.306 374.291 C 349.962 374.291 351.306 372.946 351.306 371.291 L 351.306 364.061 C 351.306 362.405 349.962 361.061 348.306 361.061 L 341.077 361.061 C 339.421 361.061 338.077 362.405 338.077 364.061 Z  M 357.921 364.061 L 357.921 371.291 C 357.921 372.946 359.265 374.291 360.921 374.291 L 368.151 374.291 C 369.806 374.291 371.151 372.946 371.151 371.291 L 371.151 364.061 C 371.151 362.405 369.806 361.061 368.151 361.061 L 360.921 361.061 C 359.265 361.061 357.921 362.405 357.921 364.061 Z  M 377.765 364.061 L 377.765 371.291 C 377.765 372.946 379.11 374.291 380.765 374.291 L 427.683 374.291 C 429.339 374.291 430.683 372.946 430.683 371.291 L 430.683 364.061 C 430.683 362.405 429.339 361.061 427.683 361.061 L 380.765 361.061 C 379.11 361.061 377.765 362.405 377.765 364.061 Z  M 437.298 364.061 L 437.298 371.291 C 437.298 372.946 438.642 374.291 440.298 374.291 L 447.528 374.291 C 449.183 374.291 450.528 372.946 450.528 371.291 L 450.528 364.061 C 450.528 362.405 449.183 361.061 447.528 361.061 L 440.298 361.061 C 438.642 361.061 437.298 362.405 437.298 364.061 Z  M 457.142 364.061 L 457.142 371.291 C 457.142 372.946 458.487 374.291 460.142 374.291 L 467.372 374.291 C 469.028 374.291 470.372 372.946 470.372 371.291 L 470.372 364.061 C 470.372 362.405 469.028 361.061 467.372 361.061 L 460.142 361.061 C 458.487 361.061 457.142 362.405 457.142 364.061 Z " fill="rgb(101,201,255)" vector-effect="non-scaling-stroke" stroke-width="1" stroke="rgb(101,201,255)" stroke-linejoin="miter" stroke-linecap="butt" stroke-miterlimit="4"/><g><g><g><g><path d="M 631.784 215.518 L 877.118 215.518 C 884.622 215.518 890.715 221.611 890.715 229.116 L 890.715 383.216 C 890.715 390.721 884.622 396.814 877.118 396.814 L 631.784 396.814 C 624.28 396.814 618.187 390.721 618.187 383.216 L 618.187 229.116 C 618.187 221.611 624.28 215.518 631.784 215.518 Z" style="stroke:none;fill:#FFFFFF;stroke-miterlimit:10;"/><path d="M 631.784 215.518 L 877.118 215.518 C 884.622 215.518 890.715 221.611 890.715 229.116 L 890.715 383.216 C 890.715 390.721 884.622 396.814 877.118 396.814 L 631.784 396.814 C 624.28 396.814 618.187 390.721 618.187 383.216 L 618.187 229.116 C 618.187 221.611 624.28 215.518 631.784 215.518 Z" style="fill:none;stroke:#65C9FF;stroke-width:7;stroke-linecap:square;stroke-miterlimit:2;"/><path d="M 591.116 392.041 L 917.786 392.041 C 918.338 392.041 918.786 392.455 918.786 392.965 L 918.786 392.965 C 918.786 403.429 909.595 411.925 898.273 411.925 L 610.629 411.925 C 599.307 411.925 590.116 403.429 590.116 392.965 L 590.116 392.965 C 590.116 392.455 590.564 392.041 591.116 392.041 Z" style="stroke:none;fill:#FFFFFF;stroke-linecap:square;stroke-miterlimit:2;"/><path d="M 591.116 392.041 L 917.786 392.041 C 918.338 392.041 918.786 392.455 918.786 392.965 L 918.786 392.965 C 918.786 403.429 909.595 411.925 898.273 411.925 L 610.629 411.925 C 599.307 411.925 590.116 403.429 590.116 392.965 L 590.116 392.965 C 590.116 392.455 590.564 392.041 591.116 392.041 Z" style="fill:none;stroke:#65C9FF;stroke-width:7;stroke-linecap:square;stroke-miterlimit:2;"/></g><path d="M 639.27 232.969 L 870.855 232.969 C 872.47 232.969 873.782 234.281 873.782 235.896 L 873.782 375.356 C 873.782 376.971 872.47 378.283 870.855 378.283 L 639.27 378.283 C 637.655 378.283 636.344 376.971 636.344 375.356 L 636.344 235.896 C 636.344 234.281 637.655 232.969 639.27 232.969 Z" style="stroke:none;fill:#FFFFFF;stroke-linecap:square;stroke-miterlimit:2;"/><path d="M 639.27 232.969 L 870.855 232.969 C 872.47 232.969 873.782 234.281 873.782 235.896 L 873.782 375.356 C 873.782 376.971 872.47 378.283 870.855 378.283 L 639.27 378.283 C 637.655 378.283 636.344 376.971 636.344 375.356 L 636.344 235.896 C 636.344 234.281 637.655 232.969 639.27 232.969 Z" style="fill:none;stroke:#65C9FF;stroke-width:7;stroke-linecap:square;stroke-miterlimit:2;"/><path d="M 720.98 393.211 L 787.922 393.211 L 787.922 395.55 C 787.922 399.423 784.777 402.568 780.904 402.568 L 727.998 402.568 C 724.125 402.568 720.98 399.423 720.98 395.55 L 720.98 393.211 Z" style="stroke:none;fill:#FFFFFF;stroke-linecap:square;stroke-miterlimit:2;"/><path d="M 720.98 393.211 L 787.922 393.211 L 787.922 395.55 C 787.922 399.423 784.777 402.568 780.904 402.568 L 727.998 402.568 C 724.125 402.568 720.98 399.423 720.98 395.55 L 720.98 393.211 Z" style="fill:none;stroke:#65C9FF;stroke-width:6;stroke-linecap:square;stroke-miterlimit:2;"/></g><circle vector-effect="non-scaling-stroke" cx="755.0699289424914" cy="224.24033284134975" r="4.042607559209046" fill="rgb(101,201,255)"/></g></g><path d=" M 528.331 310.714 C 528.215 310.72 528.099 310.736 527.986 310.762 C 511.27 310.966 497.742 324.595 497.742 341.358 L 497.742 349.537 C 497.708 349.741 497.708 349.962 497.742 350.166 L 498.095 369.667 C 498.095 386.557 511.828 400.283 528.711 400.283 C 545.6 400.283 559.327 386.557 559.327 369.667 L 558.974 350.088 C 559.001 349.936 559.001 349.781 558.974 349.629 L 558.974 341.358 C 558.974 324.587 545.44 310.947 528.711 310.755 C 528.586 310.728 528.459 310.714 528.331 310.714 Z  M 526.658 314.23 L 526.658 321.265 C 524.685 321.976 523.256 323.85 523.256 326.05 L 523.256 336.255 C 523.256 338.454 524.685 340.328 526.658 341.039 L 526.658 348.161 L 501.144 348.161 L 501.144 341.358 C 501.144 326.886 512.406 315.113 526.658 314.228 L 526.658 314.23 Z  M 530.059 314.23 C 544.311 315.106 555.573 326.88 555.573 341.358 L 555.573 348.161 L 530.059 348.161 L 530.059 341.038 C 532.026 340.334 533.461 338.454 533.461 336.255 L 533.461 326.05 C 533.461 323.903 531.973 322.316 530.059 321.61 L 530.059 314.23 Z  M 528.258 324.367 C 528.326 324.376 528.392 324.376 528.459 324.367 C 529.36 324.401 530.07 325.148 530.059 326.05 L 530.059 336.255 C 530.069 337.156 529.359 337.901 528.459 337.935 C 528.411 337.935 528.372 337.929 528.331 337.929 C 528.306 337.935 528.285 337.935 528.258 337.935 C 527.357 337.901 526.648 337.156 526.658 336.255 L 526.658 326.05 C 526.658 325.126 527.348 324.422 528.258 324.369 L 528.258 324.367 Z  M 501.144 352.283 L 528.073 352.283 C 528.251 352.317 528.445 352.317 528.624 352.283 L 555.573 352.283 L 555.925 369.667 C 555.925 384.716 543.767 396.881 528.711 396.881 C 513.661 396.881 501.496 384.716 501.496 369.667 L 501.144 352.283 Z " fill="rgb(101,201,255)" vector-effect="non-scaling-stroke" stroke-width="2.6" stroke="rgb(101,201,255)" stroke-linejoin="miter" stroke-linecap="butt" stroke-miterlimit="4"/><path d=" M 47.358 350.166 L 40.907 350.166 C 37.688 350.166 35.078 350.301 35.078 347.082 C 35.078 343.862 37.688 343.283 40.907 343.283 L 47.358 343.283 C 50.545 343.283 53.187 343.817 53.187 347.082 C 53.11 350.346 50.545 350.166 47.358 350.166 Z  M 268.476 195.283 L 18.368 195.283 C 6.632 195.283 0.798 203.193 0.798 215.395 L 0 358.109 C 0 370.311 6.554 376.271 18.368 376.271 L 126.012 375.283 L 126.012 407.283 L 91.504 407.283 C 88.285 407.283 85.675 407.361 85.675 410.58 C 85.675 413.799 88.285 415.311 91.504 415.311 L 195.34 415.311 C 198.559 415.311 201.169 413.799 201.169 410.58 C 201.169 407.361 198.559 407.283 195.34 407.283 L 160.443 407.283 L 160.443 375.283 L 268.476 375.283 C 280.212 375.283 286.798 368.91 286.798 356.708 L 286.798 214.955 C 286.798 202.753 280.29 195.283 268.476 195.283 Z  M 148.863 407.283 L 137.671 407.283 L 137.671 375.283 L 148.863 375.283 L 148.863 407.283 Z  M 268.476 366.745 L 18.368 368.072 C 13.005 368.072 7.814 362.537 7.814 356.708 L 7.814 350.166 L 22.487 350.282 C 25.707 350.282 28.316 350.301 28.316 347.082 C 28.316 343.862 25.707 342.826 22.487 342.826 L 7.814 342.826 L 7.814 214.955 C 7.814 209.126 12.927 203.373 18.368 203.373 L 268.476 203.373 C 273.839 203.373 279.506 209.566 279.506 215.395 L 279.506 342.826 L 72.151 343.283 C 68.932 343.283 66.322 343.94 66.322 347.159 C 66.322 350.379 69.512 350.166 72.732 350.166 L 279.506 351.46 L 279.506 356.708 C 279.506 362.459 273.917 366.745 268.476 366.745 L 268.476 366.745 Z " fill="rgb(101,201,255)" vector-effect="non-scaling-stroke" stroke-width="0.504" stroke="rgb(101,201,255)" stroke-linejoin="miter" stroke-linecap="butt" stroke-miterlimit="4"/><path d=" M 182.86 281.773 L 193.509 281.773 L 193.509 309.86 C 190.966 310.756 189.26 313.153 189.249 315.85 C 189.249 319.378 192.11 322.239 195.639 322.239 C 199.167 322.239 202.028 319.378 202.028 315.85 C 202.028 313.081 200.239 310.742 197.768 309.858 L 197.768 286.032 C 203.551 296.847 214.681 304.376 227.586 305.134 L 227.586 315.85 L 253.143 315.85 L 253.143 290.292 L 227.586 290.292 L 227.586 300.809 C 215.687 300.04 205.211 292.696 200.431 281.773 L 208.418 281.773 L 208.418 256.215 L 200.431 256.215 C 205.097 245.566 215.397 237.977 227.586 237.179 L 227.586 247.696 L 253.143 247.696 L 253.143 222.138 L 227.586 222.138 L 227.586 232.853 C 214.658 233.596 203.551 241.132 197.768 251.955 L 197.768 228.127 C 200.239 227.245 202.028 224.909 202.028 222.138 C 202.028 218.609 199.167 215.749 195.639 215.749 C 192.11 215.749 189.249 218.609 189.249 222.138 C 189.249 224.907 191.038 227.245 193.509 228.129 L 193.509 256.215 L 182.86 256.215 L 182.86 281.773 Z  M 187.119 277.513 L 187.119 260.475 L 194.906 260.475 C 195.318 260.599 195.759 260.599 196.171 260.475 L 204.158 260.475 L 204.158 277.513 L 196.037 277.513 C 195.752 277.455 195.458 277.455 195.172 277.513 L 187.119 277.513 Z  M 231.845 311.59 L 231.845 294.551 L 248.884 294.551 L 248.884 311.59 L 231.845 311.59 Z  M 231.845 243.436 L 231.845 226.398 L 248.884 226.398 L 248.884 243.436 L 231.845 243.436 Z " fill="rgb(101,201,255)" vector-effect="non-scaling-stroke" stroke-width="1" stroke="rgb(101,201,255)" stroke-linejoin="miter" stroke-linecap="butt" stroke-miterlimit="4"/><path d=" M 37.747 215.749 C 29.482 215.749 22.702 222.529 22.702 230.793 L 22.702 326.076 L 153.089 326.076 L 153.089 230.793 C 153.089 222.529 146.309 215.749 138.044 215.749 L 37.747 215.749 Z  M 37.747 223.283 L 43.798 223.283 L 43.798 237.179 L 29.798 237.179 L 29.798 230.793 C 29.798 227.975 34.929 223.283 37.747 223.283 Z  M 52.792 223.283 L 62.821 223.283 L 62.821 237.179 L 52.792 237.179 L 52.792 223.283 Z  M 72.151 223.283 L 138.044 223.283 C 140.863 223.283 145.798 227.975 145.798 230.793 L 145.798 237.283 L 72.151 237.179 L 72.151 223.283 Z  M 29.798 244.283 L 145.798 245.283 L 145.798 319.582 L 29.798 318.978 L 29.798 244.283 Z " fill="rgb(101,201,255)"/><path d=" M 711.313 285.921 C 710.086 285.921 707.848 286.05 706.925 286.973 L 700.321 294.183 C 699.951 294.382 700.55 293.832 700.321 294.183 L 678.59 316.159 C 676.744 318.009 676.185 321.511 678.031 323.361 L 706.925 352.736 C 708.78 354.571 714.175 354.571 716.03 352.736 L 744.899 324.063 C 746.745 322.213 746.745 318.009 744.899 316.159 L 715.166 286.973 C 714.278 286.088 712.567 285.911 711.313 285.921 Z  M 711.313 290.867 L 740.459 320.013 L 711.313 349.159 L 682.167 320.013 L 702.335 299.848 L 706.596 304.109 C 706.487 304.531 706.435 304.966 706.443 305.402 C 706.443 307.199 707.422 308.741 708.878 309.588 L 708.878 330.438 C 707.422 331.285 706.443 332.824 706.443 334.623 C 706.443 337.313 708.624 339.494 711.313 339.494 C 714.003 339.494 716.184 337.313 716.184 334.623 C 716.184 332.826 715.205 331.285 713.748 330.438 L 713.748 311.339 L 721.207 318.795 C 720.83 320.254 721.149 321.805 722.072 322.997 C 722.995 324.188 724.417 324.884 725.924 324.883 C 728.613 324.882 730.792 322.702 730.792 320.013 C 730.794 318.505 730.098 317.082 728.906 316.159 C 727.715 315.235 726.163 314.916 724.704 315.294 L 716.03 306.62 C 716.408 305.161 716.089 303.609 715.166 302.418 C 714.243 301.227 712.82 300.531 711.313 300.532 C 710.878 300.525 710.444 300.576 710.023 300.685 L 705.761 296.424 L 711.313 290.867 Z " fill="rgb(101,201,255)" vector-effect="non-scaling-stroke" stroke-width="1" stroke="rgb(101,201,255)" stroke-linejoin="miter" stroke-linecap="butt" stroke-miterlimit="4"/><path d=" M 789.461 285.921 C 785.529 285.921 781.711 289.444 781.711 293.376 C 781.711 296.816 784.781 299.856 788.031 300.525 L 788.031 334.365 C 784.781 335.034 781.711 338.549 781.711 341.989 C 781.711 345.921 785.529 349.876 789.461 349.876 C 793.393 349.876 797.339 345.921 797.339 341.989 C 797.339 338.565 794.165 335.052 790.935 334.365 C 791.204 329.505 792.957 328 795.582 326.319 C 798.441 324.493 802.552 323.538 806.841 322.829 C 811.131 322.119 816.005 321.263 819.579 318.978 C 822.902 316.856 824.798 313.192 825.117 307.54 C 828.404 306.904 831 303.859 831 300.391 C 831 296.459 827.719 293.134 823.787 293.134 C 819.855 293.134 816.574 296.593 816.574 300.525 C 816.574 303.95 819.072 306.853 822.302 307.54 C 822.033 312.394 820.401 314.537 817.776 316.214 C 814.916 318.034 810.685 318.873 806.395 319.582 C 802.106 320.291 797.325 321.252 793.75 323.536 C 792.525 324.322 791.808 325.155 790.935 326.319 L 790.891 300.525 C 794.141 299.855 796.738 296.816 796.738 293.376 C 796.738 289.444 793.393 285.921 789.461 285.921 Z  M 789.461 289.087 C 791.846 289.087 793.75 290.991 793.75 293.376 C 793.75 295.761 791.846 297.666 789.461 297.666 C 787.076 297.666 785.171 295.761 785.171 293.376 C 785.171 290.991 787.076 289.087 789.461 289.087 Z  M 823.787 296.139 C 826.172 296.139 827.995 298.006 827.995 300.391 C 827.995 302.776 826.161 304.555 823.776 304.555 C 821.391 304.555 819.579 302.91 819.579 300.525 C 819.579 298.14 821.402 296.139 823.787 296.139 Z  M 789.461 337.7 C 791.846 337.7 793.75 339.604 793.75 341.989 C 793.75 344.374 791.846 346.279 789.461 346.279 C 787.076 346.279 785.171 344.374 785.171 341.989 C 785.171 339.604 787.076 337.7 789.461 337.7 Z " fill="rgb(101,201,255)" vector-effect="non-scaling-stroke" stroke-width="3" stroke="rgb(101,201,255)" stroke-linejoin="miter" stroke-linecap="butt" stroke-miterlimit="4"/><g><path d="M 341.063 126.57 L 394.862 126.57 C 402.439 126.57 408.59 132.721 408.59 140.297 L 408.59 257.185 C 408.59 264.761 402.439 270.912 394.862 270.912 L 341.063 270.912 C 333.487 270.912 327.336 264.761 327.336 257.185 L 327.336 140.297 C 327.336 132.721 333.487 126.57 341.063 126.57 Z" style="stroke:none;fill:#FFFFFF;stroke-linecap:square;stroke-miterlimit:2;"/><path d="M 341.063 126.57 L 394.862 126.57 C 402.439 126.57 408.59 132.721 408.59 140.297 L 408.59 257.185 C 408.59 264.761 402.439 270.912 394.862 270.912 L 341.063 270.912 C 333.487 270.912 327.336 264.761 327.336 257.185 L 327.336 140.297 C 327.336 132.721 333.487 126.57 341.063 126.57 Z" style="fill:none;stroke:#65C9FF;stroke-width:7;stroke-linecap:square;stroke-miterlimit:2;"/><rect x="327.336" y="144.114" width="81.254" height="105.261" transform="matrix(1,0,0,1,0,0)" fill="rgb(255,255,255)" vector-effect="non-scaling-stroke" stroke-width="7" stroke="rgb(101,201,255)" stroke-linejoin="miter" stroke-linecap="square" stroke-miterlimit="2"/><circle vector-effect="non-scaling-stroke" cx="369.46282650356045" cy="260.00780908631475" r="5.1934793487623665" fill="rgb(101,201,255)"/><path d="M 348.791 133.033 L 390.134 133.033 C 391.56 133.033 392.718 134.191 392.718 135.617 L 392.718 135.617 C 392.718 137.043 391.56 138.201 390.134 138.201 L 348.791 138.201 C 347.365 138.201 346.208 137.043 346.208 135.617 L 346.208 135.617 C 346.208 134.191 347.365 133.033 348.791 133.033 Z" style="stroke:none;fill:#65C9FF;stroke-linecap:square;stroke-miterlimit:2;"/><path d=" M 359.855 212.5 L 352.255 204.9 C 350.694 203.339 350.694 200.804 352.255 199.243 L 359.855 191.643 C 360.635 190.863 360.635 189.595 359.855 188.815 L 359.079 188.039 C 358.299 187.259 357.031 187.259 356.251 188.039 L 345.047 199.243 C 343.486 200.804 343.486 203.339 345.047 204.9 L 356.251 216.104 C 357.031 216.885 358.299 216.885 359.079 216.104 L 359.855 215.328 C 360.635 214.548 360.635 213.28 359.855 212.5 Z  M 376.071 212.5 L 383.67 204.9 C 385.231 203.339 385.231 200.804 383.67 199.243 L 376.071 191.643 C 375.29 190.863 375.29 189.595 376.071 188.815 L 376.846 188.039 C 377.627 187.259 378.894 187.259 379.675 188.039 L 390.879 199.243 C 392.44 200.804 392.44 203.339 390.879 204.9 L 379.675 216.104 C 378.894 216.885 377.627 216.885 376.846 216.104 L 376.071 215.328 C 375.29 214.548 375.29 213.28 376.071 212.5 Z " fill="rgb(101,201,255)" vector-effect="non-scaling-stroke" stroke-width="2" stroke="rgb(101,201,255)" stroke-linejoin="miter" stroke-linecap="round" stroke-miterlimit="4"/></g><g><path d=" M 993.626 310.059 L 989.322 310.059 L 985.755 294.045 C 985.556 293.153 984.763 292.518 983.846 292.518 L 936.898 292.518 C 935.982 292.518 935.188 293.153 934.989 294.045 L 931.421 310.059 L 927.118 310.059 C 926.037 310.059 925.162 310.932 925.162 312.008 L 925.162 329.549 C 925.162 330.625 926.037 331.498 927.118 331.498 L 929.123 331.498 L 931.03 405.607 C 931.057 406.664 931.925 407.508 932.986 407.508 L 933.035 413.757 C 933.035 414.834 933.911 415.706 934.991 415.706 L 985.851 415.706 C 986.931 415.706 987.807 414.834 987.807 413.757 L 987.758 407.508 C 988.819 407.508 989.687 406.664 989.714 405.607 L 991.621 331.498 L 993.626 331.498 C 994.707 331.498 995.582 330.625 995.582 329.549 L 995.582 312.008 C 995.582 310.932 994.707 310.059 993.626 310.059 Z  M 938.463 296.416 L 982.281 296.416 L 985.322 310.059 L 935.425 310.059 L 938.463 296.416 Z  M 983.895 411.808 L 936.947 411.808 L 936.898 407.508 L 983.846 407.508 L 983.895 411.808 Z  M 985.851 403.61 L 934.893 403.61 L 933.037 331.498 L 966.24 331.498 L 966.24 338.191 L 957.408 343.47 C 956.82 343.823 956.46 344.456 956.46 345.141 L 956.46 372.426 C 956.46 373.503 957.335 374.375 958.416 374.375 L 977.977 374.375 C 979.058 374.375 979.933 373.503 979.933 372.426 L 979.933 345.141 C 979.933 344.456 979.573 343.823 978.985 343.47 L 970.153 338.191 L 970.153 331.498 L 987.707 331.498 L 985.851 403.61 Z  M 968.197 341.566 L 976.021 346.244 L 976.021 370.477 L 960.372 370.477 L 960.372 346.244 L 968.197 341.566 Z  M 991.67 327.6 L 929.074 327.6 L 929.074 313.957 L 991.67 313.957 L 991.67 327.6 Z " fill="rgb(101,201,255)" vector-effect="non-scaling-stroke" stroke-width="1.5" stroke="rgb(101,201,255)" stroke-linejoin="miter" stroke-linecap="butt" stroke-miterlimit="4"/><path d=" M 966.741 366.832 L 969.19 366.832 C 970.543 366.832 971.639 365.74 971.639 364.392 C 971.639 363.044 970.543 361.952 969.19 361.952 L 966.741 361.952 C 965.388 361.952 964.291 363.044 964.291 364.392 C 964.291 365.74 965.388 366.832 966.741 366.832 Z " fill="rgb(101,201,255)"/><path d=" M 960.64 391.389 L 936.215 391.389 C 934.988 391.389 933.994 392.379 933.994 393.601 C 933.994 394.823 934.988 395.814 936.215 395.814 L 960.64 395.814 C 961.867 395.814 962.861 394.823 962.861 393.601 C 962.861 392.379 961.867 391.389 960.64 391.389 Z " fill="rgb(101,201,255)"/><path d=" M 969.419 391.389 L 967.198 391.389 C 965.972 391.389 964.978 392.379 964.978 393.601 C 964.978 394.823 965.972 395.814 967.198 395.814 L 969.419 395.814 C 970.645 395.814 971.639 394.823 971.639 393.601 C 971.639 392.379 970.645 391.389 969.419 391.389 Z " fill="rgb(101,201,255)"/><path d=" M 965.133 316.997 C 963.878 316.997 962.861 318.011 962.861 319.261 C 962.861 320.511 963.878 321.525 965.133 321.525 L 992.399 321.525 C 993.654 321.525 994.672 320.511 994.672 319.261 C 994.672 318.011 993.654 316.997 992.399 316.997 L 965.133 316.997 Z " fill="rgb(101,201,255)"/><path d=" M 959.048 316.997 L 956.776 316.997 C 955.521 316.997 954.504 318.011 954.504 319.261 C 954.504 320.511 955.521 321.525 956.776 321.525 L 959.048 321.525 C 960.303 321.525 961.32 320.511 961.32 319.261 C 961.32 318.011 960.303 316.997 959.048 316.997 Z " fill="rgb(101,201,255)"/></g></g></svg>