<?xml version="1.0" encoding="UTF-8" standalone="no"?><!-- Generator: Gravit.io --><svg xmlns="http://www.w3.org/2000/svg" xmlns:xlink="http://www.w3.org/1999/xlink" style="isolation:isolate" viewBox="0 0 1000 415" width="1000pt" height="415pt"><defs><clipPath id="_clipPath_1HFcTHOWN2LxqceytF1xMe8XKuuKBUkl"><rect width="1000" height="415"/></clipPath></defs><g clip-path="url(#_clipPath_1HFcTHOWN2LxqceytF1xMe8XKuuKBUkl)"><g><path d=" M 329.371 94.552 C 330.111 95.293 331.083 95.665 332.055 95.665 C 333.028 95.665 334 95.295 334.742 94.552 C 336.225 93.07 336.225 90.664 334.742 89.181 L 325.52 79.959 L 334.742 70.738 C 336.225 69.253 336.225 66.85 334.742 65.367 C 333.259 63.884 330.854 63.884 329.371 65.367 L 317.464 77.274 C 316.751 77.987 316.351 78.953 316.351 79.959 C 316.351 80.966 316.751 81.933 317.464 82.645 L 329.371 94.552 Z " fill="rgb(101,201,255)"/><path d=" M 367.06 79.959 L 357.838 89.181 C 356.355 90.664 356.355 93.07 357.84 94.552 C 358.58 95.293 359.552 95.665 360.525 95.665 C 361.497 95.665 362.469 95.293 363.209 94.552 L 375.118 82.643 C 376.601 81.16 376.601 78.755 375.118 77.274 L 363.209 65.365 C 361.726 63.882 359.323 63.882 357.84 65.365 C 356.355 66.85 356.355 69.253 357.84 70.736 L 367.06 79.959 Z " fill="rgb(101,201,255)"/><path d=" M 340.628 95.402 C 341.084 95.58 341.555 95.665 342.016 95.665 C 343.533 95.665 344.964 94.75 345.552 93.256 L 354.908 69.439 C 355.676 67.487 354.714 65.283 352.761 64.515 C 350.811 63.749 348.605 64.709 347.839 66.662 L 338.482 90.478 C 337.716 92.43 338.676 94.636 340.628 95.402 Z " fill="rgb(101,201,255)"/><path d=" M 322.298 117.947 L 347.885 117.947 C 349.982 117.947 351.682 116.246 351.682 114.148 C 351.682 112.051 349.982 110.35 347.885 110.35 L 322.298 110.35 C 320.2 110.35 318.501 112.051 318.501 114.148 C 318.501 116.246 320.2 117.947 322.298 117.947 Z " fill="rgb(101,201,255)"/><path d=" M 406.815 110.35 L 361.831 110.35 C 359.735 110.35 358.034 112.051 358.034 114.148 C 358.034 116.246 359.735 117.947 361.831 117.947 L 406.815 117.947 C 408.913 117.947 410.614 116.246 410.614 114.148 C 410.614 112.051 408.913 110.35 406.815 110.35 Z " fill="rgb(101,201,255)"/><path d=" M 322.298 133.966 L 333.198 133.966 C 335.295 133.966 336.995 132.266 336.995 130.167 C 336.995 128.07 335.295 126.37 333.198 126.37 L 322.298 126.37 C 320.2 126.37 318.501 128.07 318.501 130.167 C 318.501 132.266 320.2 133.966 322.298 133.966 Z " fill="rgb(101,201,255)"/><path d=" M 392.92 126.37 C 390.821 126.37 389.122 128.07 389.122 130.167 C 389.122 132.266 390.821 133.966 392.92 133.966 L 399.556 133.966 C 401.655 133.966 403.356 132.266 403.356 130.167 C 403.356 128.07 401.655 126.37 399.556 126.37 L 392.92 126.37 Z " fill="rgb(101,201,255)"/><path d=" M 382.923 130.167 C 382.923 128.07 381.222 126.37 379.126 126.37 L 346.525 126.37 C 344.426 126.37 342.727 128.07 342.727 130.167 C 342.727 132.266 344.426 133.966 346.525 133.966 L 379.126 133.966 C 381.222 133.966 382.923 132.266 382.923 130.167 Z " fill="rgb(101,201,255)"/><path d=" M 407.803 130.167 C 407.803 132.266 409.503 133.966 411.6 133.966 L 424.032 133.966 C 426.131 133.966 427.832 132.266 427.832 130.167 C 427.832 128.07 426.131 126.37 424.032 126.37 L 411.6 126.37 C 409.503 126.37 407.803 128.07 407.803 130.167 Z " fill="rgb(101,201,255)"/><path d=" M 387.119 83.006 L 400.232 83.006 C 402.33 83.006 404.031 81.305 404.031 79.206 C 404.031 77.109 402.33 75.409 400.232 75.409 L 387.119 75.409 C 385.02 75.409 383.319 77.109 383.319 79.206 C 383.319 81.305 385.02 83.006 387.119 83.006 Z " fill="rgb(101,201,255)"/><path d=" M 414.919 83.006 L 494.929 83.006 C 497.027 83.006 498.726 81.305 498.726 79.206 C 498.726 77.109 497.027 75.409 494.929 75.409 L 414.919 75.409 C 412.82 75.409 411.119 77.109 411.119 79.206 C 411.119 81.305 412.82 83.006 414.919 83.006 L 414.919 83.006 Z " fill="rgb(101,201,255)"/><path d=" M 482.776 92.119 L 450.365 92.119 C 448.268 92.119 446.567 93.82 446.567 95.919 C 446.567 98.015 448.268 99.716 450.365 99.716 L 482.776 99.716 C 484.873 99.716 486.573 98.015 486.573 95.919 C 486.573 93.82 484.873 92.119 482.776 92.119 Z " fill="rgb(101,201,255)"/><path d=" M 438.212 92.119 L 427.071 92.119 C 424.973 92.119 423.274 93.82 423.274 95.919 C 423.274 98.015 424.973 99.716 427.071 99.716 L 438.212 99.716 C 440.311 99.716 442.01 98.015 442.01 95.919 C 442.01 93.82 440.311 92.119 438.212 92.119 Z " fill="rgb(101,201,255)"/><path d=" M 387.119 99.716 L 414.412 99.716 C 416.508 99.716 418.209 98.015 418.209 95.919 C 418.209 93.82 416.508 92.119 414.412 92.119 L 387.119 92.119 C 385.02 92.119 383.319 93.82 383.319 95.919 C 383.319 98.015 385.02 99.716 387.119 99.716 Z " fill="rgb(101,201,255)"/><path d=" M 379.173 142.254 L 353.589 142.254 C 351.49 142.254 349.789 143.955 349.789 146.052 C 349.789 148.149 351.49 149.849 353.589 149.849 L 379.173 149.849 C 381.27 149.849 382.971 148.149 382.971 146.052 C 382.971 143.955 381.27 142.254 379.173 142.254 Z " fill="rgb(101,201,255)"/><path d=" M 341.955 142.254 L 322.298 142.254 C 320.2 142.254 318.501 143.955 318.501 146.052 C 318.501 148.149 320.2 149.849 322.298 149.849 L 341.955 149.849 C 344.054 149.849 345.752 148.149 345.752 146.052 C 345.752 143.955 344.054 142.254 341.955 142.254 Z " fill="rgb(101,201,255)"/><path d=" M 425.553 142.254 L 392.13 142.254 C 390.031 142.254 388.332 143.955 388.332 146.052 C 388.332 148.149 390.031 149.849 392.13 149.849 L 425.553 149.849 C 427.649 149.849 429.35 148.149 429.35 146.052 C 429.35 143.955 427.649 142.254 425.553 142.254 L 425.553 142.254 Z " fill="rgb(101,201,255)"/><path d=" M 470.752 122.744 L 452.475 122.744 C 450.379 122.744 448.678 124.445 448.678 126.542 C 448.678 128.641 450.379 130.341 452.475 130.341 L 470.752 130.341 C 472.851 130.341 474.549 128.641 474.549 126.542 C 474.549 124.445 472.851 122.744 470.752 122.744 L 470.752 122.744 Z " fill="rgb(101,201,255)"/><path d=" M 502.466 130.341 L 528.266 130.341 C 530.365 130.341 532.066 128.641 532.066 126.542 C 532.066 124.445 530.365 122.744 528.266 122.744 L 502.466 122.744 C 500.367 122.744 498.669 124.445 498.669 126.542 C 498.669 128.641 500.369 130.341 502.466 130.341 Z " fill="rgb(101,201,255)"/><path d=" M 489.565 122.744 L 483.653 122.744 C 481.554 122.744 479.854 124.445 479.854 126.542 C 479.854 128.641 481.554 130.341 483.653 130.341 L 489.565 130.341 C 491.664 130.341 493.362 128.641 493.362 126.542 C 493.362 124.445 491.664 122.744 489.565 122.744 Z " fill="rgb(101,201,255)"/><path d=" M 452.475 171.729 L 470.752 171.729 C 472.851 171.729 474.549 170.031 474.549 167.932 C 474.549 165.835 472.851 164.134 470.752 164.134 L 452.475 164.134 C 450.379 164.134 448.678 165.835 448.678 167.932 C 448.678 170.031 450.379 171.729 452.475 171.729 L 452.475 171.729 Z " fill="rgb(101,201,255)"/><path d=" M 502.466 171.729 L 528.266 171.729 C 530.365 171.729 532.066 170.031 532.066 167.932 C 532.066 165.835 530.365 164.134 528.266 164.134 L 502.466 164.134 C 500.367 164.134 498.669 165.835 498.669 167.932 C 498.669 170.031 500.369 171.729 502.466 171.729 Z " fill="rgb(101,201,255)"/><path d=" M 483.653 171.729 L 489.565 171.729 C 491.664 171.729 493.364 170.031 493.364 167.932 C 493.364 165.835 491.664 164.134 489.565 164.134 L 483.653 164.134 C 481.554 164.134 479.856 165.835 479.856 167.932 C 479.856 170.031 481.554 171.729 483.653 171.729 Z " fill="rgb(101,201,255)"/><path d=" M 470.752 205.524 L 452.475 205.524 C 450.379 205.524 448.678 207.225 448.678 209.322 C 448.678 211.418 450.379 213.119 452.475 213.119 L 470.752 213.119 C 472.851 213.119 474.549 211.418 474.549 209.322 C 474.549 207.225 472.851 205.524 470.752 205.524 L 470.752 205.524 Z " fill="rgb(101,201,255)"/><path d=" M 528.266 205.524 L 502.466 205.524 C 500.367 205.524 498.669 207.225 498.669 209.322 C 498.669 211.418 500.367 213.119 502.466 213.119 L 528.266 213.119 C 530.365 213.119 532.066 211.418 532.066 209.322 C 532.066 207.225 530.365 205.524 528.266 205.524 L 528.266 205.524 Z " fill="rgb(101,201,255)"/><path d=" M 489.565 205.524 L 483.653 205.524 C 481.554 205.524 479.854 207.225 479.854 209.322 C 479.854 211.418 481.554 213.119 483.653 213.119 L 489.565 213.119 C 491.664 213.119 493.362 211.418 493.362 209.322 C 493.362 207.225 491.664 205.524 489.565 205.524 Z " fill="rgb(101,201,255)"/><path d=" M 542.282 0 L 316.202 0 C 306.986 0 299.486 7.498 299.486 16.716 L 299.486 200.485 C 299.486 209.702 306.986 217.2 316.202 217.2 L 330.495 217.2 C 332.592 217.2 334.293 215.501 334.293 213.402 C 334.293 211.306 332.592 209.605 330.495 209.605 L 316.202 209.605 C 311.173 209.605 307.083 205.514 307.083 200.485 L 307.083 186.078 L 445.453 186.078 L 445.453 192.623 L 442.441 192.623 C 438.321 192.623 434.971 195.973 434.971 200.093 L 434.971 209.605 L 353.587 209.605 C 351.49 209.605 349.789 211.306 349.789 213.402 C 349.789 215.501 351.49 217.2 353.587 217.2 L 390.104 217.2 L 390.104 230.822 L 378.637 230.822 C 370.986 230.822 364.764 237.046 364.764 244.695 L 364.764 252.9 C 364.764 256.39 367.603 259.229 371.093 259.229 L 487.1 259.229 C 490.591 259.229 493.43 256.39 493.43 252.9 L 493.43 244.695 C 493.43 237.046 487.207 230.822 479.557 230.822 L 468.089 230.822 L 468.089 226.02 L 538.302 226.02 C 542.421 226.02 545.771 222.67 545.771 218.55 L 545.771 216.762 C 553.174 215.044 558.707 208.401 558.707 200.485 L 558.994 16.714 C 558.996 7.498 551.499 0 542.282 0 L 542.282 0 Z  M 442.568 177.035 L 442.568 158.83 L 538.176 158.83 L 538.176 177.035 L 442.568 177.035 Z  M 453.048 151.233 L 453.048 143.242 L 527.694 143.242 L 527.694 151.233 L 453.048 151.233 Z  M 527.694 184.63 L 527.694 192.623 L 453.048 192.623 L 453.048 184.63 L 527.694 184.63 Z  M 397.699 217.2 L 434.971 217.2 L 434.971 218.552 C 434.971 222.67 438.321 226.02 442.441 226.02 L 460.494 226.02 L 460.494 230.822 L 397.699 230.822 L 397.699 217.2 Z  M 479.559 238.418 C 483.019 238.418 485.835 241.234 485.835 244.695 L 485.835 251.634 L 372.358 251.634 L 372.358 244.695 C 372.358 241.234 375.176 238.418 378.637 238.418 L 479.559 238.418 Z  M 538.176 218.423 L 442.568 218.423 L 442.568 200.22 L 538.176 200.22 L 538.176 218.423 Z  M 551.112 200.485 C 551.112 204.164 548.919 207.334 545.773 208.773 L 545.773 200.091 C 545.773 195.973 542.421 192.623 538.302 192.623 L 535.291 192.623 L 535.291 186.078 L 551.112 186.078 L 551.112 200.485 Z  M 551.112 178.483 L 545.648 178.483 C 545.725 178.053 545.773 158.703 545.773 158.703 C 545.773 154.583 542.421 151.233 538.302 151.233 L 535.291 151.233 L 535.291 143.242 L 538.302 143.242 C 542.421 143.242 545.773 139.89 545.773 135.772 L 545.773 117.313 C 545.773 113.195 542.421 109.843 538.302 109.843 L 516.85 109.843 C 514.751 109.843 513.053 111.544 513.053 113.643 C 513.053 115.739 514.751 117.44 516.85 117.44 L 538.176 117.44 L 538.176 135.645 L 442.568 135.645 L 442.568 117.44 L 493.218 117.44 C 495.317 117.44 497.015 115.739 497.015 113.643 C 497.015 111.544 495.317 109.843 493.218 109.843 L 442.441 109.843 C 438.321 109.843 434.971 113.195 434.971 117.313 L 434.971 135.772 C 434.971 139.89 438.321 143.242 442.441 143.242 L 445.453 143.242 L 445.453 151.233 L 442.441 151.233 C 438.321 151.233 434.971 154.585 434.971 158.703 C 434.971 158.703 435.019 178.053 435.096 178.483 L 307.083 178.483 L 307.083 51.664 L 551.112 51.664 L 551.112 178.483 Z  M 551.112 44.067 L 307.362 44.067 L 307.362 16.714 C 307.362 11.687 311.453 7.597 316.481 7.597 L 541.993 7.597 C 547.022 7.597 551.112 11.687 551.112 16.716 L 551.112 44.067 Z " fill="rgb(101,201,255)"/><path d=" M 327.496 14.578 C 321.35 14.578 316.351 19.577 316.351 25.723 C 316.351 31.869 321.35 36.87 327.496 36.87 C 333.641 36.87 338.643 31.869 338.643 25.723 C 338.643 19.577 333.641 14.578 327.496 14.578 Z  M 327.496 29.273 C 325.54 29.273 323.946 27.681 323.946 25.723 C 323.946 23.767 325.54 22.173 327.496 22.173 C 329.454 22.173 331.046 23.767 331.046 25.723 C 331.046 27.681 329.454 29.273 327.496 29.273 Z " fill="rgb(101,201,255)"/><path d=" M 355.874 14.578 C 349.728 14.578 344.727 19.577 344.727 25.723 C 344.727 31.869 349.728 36.87 355.874 36.87 C 362.019 36.87 367.019 31.869 367.019 25.723 C 367.019 19.577 362.017 14.578 355.874 14.578 Z  M 355.874 29.273 C 353.916 29.273 352.324 27.681 352.324 25.723 C 352.324 23.767 353.916 22.173 355.874 22.173 C 357.83 22.173 359.424 23.767 359.424 25.723 C 359.424 27.681 357.83 29.273 355.874 29.273 Z " fill="rgb(101,201,255)"/><path d=" M 384.25 14.578 C 378.104 14.578 373.105 19.577 373.105 25.723 C 373.105 31.869 378.104 36.87 384.25 36.87 C 390.395 36.87 395.397 31.869 395.397 25.723 C 395.397 19.577 390.395 14.578 384.25 14.578 Z  M 384.25 29.273 C 382.294 29.273 380.7 27.681 380.7 25.723 C 380.7 23.767 382.294 22.173 384.25 22.173 C 386.208 22.173 387.8 23.767 387.8 25.723 C 387.8 27.681 386.208 29.273 384.25 29.273 Z " fill="rgb(101,201,255)"/></g><path d=" M 443.708 258.016 C 443.708 268.249 441.317 272.767 438.228 275.278 C 435.142 277.781 430.439 278.572 425.104 279.306 C 419.766 280.044 413.809 280.728 408.875 284.681 C 404.78 287.961 401.952 293.389 401.125 301.528 L 334.77 301.528 C 327.493 301.528 321.54 307.482 321.54 314.758 L 321.54 380.905 C 321.54 388.182 327.493 394.135 334.77 394.135 L 473.679 394.135 C 480.956 394.135 486.909 388.182 486.909 380.905 L 486.909 314.758 C 486.909 307.482 480.956 301.528 473.679 301.528 L 407.843 301.528 C 408.554 295.119 410.542 291.824 413.009 289.85 C 416.085 287.383 420.682 286.658 426.033 285.921 C 431.381 285.187 437.427 284.462 442.362 280.444 C 447.296 276.425 450.323 269.348 450.323 258.016 L 443.708 258.016 Z  M 334.77 308.143 L 473.679 308.143 C 477.374 308.143 480.294 311.063 480.294 314.758 L 480.294 380.905 C 480.294 384.6 477.374 387.52 473.679 387.52 L 334.77 387.52 C 331.075 387.52 328.155 384.6 328.155 380.905 L 328.155 314.758 C 328.155 311.063 331.075 308.143 334.77 308.143 Z  M 338.077 324.373 L 338.077 331.602 C 338.077 333.258 339.421 334.602 341.077 334.602 L 348.306 334.602 C 349.962 334.602 351.306 333.258 351.306 331.602 L 351.306 324.373 C 351.306 322.717 349.962 321.373 348.306 321.373 L 341.077 321.373 C 339.421 321.373 338.077 322.717 338.077 324.373 Z  M 357.921 324.373 L 357.921 331.602 C 357.921 333.258 359.265 334.602 360.921 334.602 L 368.151 334.602 C 369.806 334.602 371.151 333.258 371.151 331.602 L 371.151 324.373 C 371.151 322.717 369.806 321.373 368.151 321.373 L 360.921 321.373 C 359.265 321.373 357.921 322.717 357.921 324.373 Z  M 377.765 324.373 L 377.765 331.602 C 377.765 333.258 379.11 334.602 380.765 334.602 L 387.995 334.602 C 389.651 334.602 390.995 333.258 390.995 331.602 L 390.995 324.373 C 390.995 322.717 389.651 321.373 387.995 321.373 L 380.765 321.373 C 379.11 321.373 377.765 322.717 377.765 324.373 Z  M 397.61 324.373 L 397.61 331.602 C 397.61 333.258 398.954 334.602 400.61 334.602 L 407.839 334.602 C 409.495 334.602 410.839 333.258 410.839 331.602 L 410.839 324.373 C 410.839 322.717 409.495 321.373 407.839 321.373 L 400.61 321.373 C 398.954 321.373 397.61 322.717 397.61 324.373 Z  M 417.454 324.373 L 417.454 331.602 C 417.454 333.258 418.798 334.602 420.454 334.602 L 427.683 334.602 C 429.339 334.602 430.683 333.258 430.683 331.602 L 430.683 324.373 C 430.683 322.717 429.339 321.373 427.683 321.373 L 420.454 321.373 C 418.798 321.373 417.454 322.717 417.454 324.373 Z  M 437.298 324.373 L 437.298 331.602 C 437.298 333.258 438.642 334.602 440.298 334.602 L 447.528 334.602 C 449.183 334.602 450.528 333.258 450.528 331.602 L 450.528 324.373 C 450.528 322.717 449.183 321.373 447.528 321.373 L 440.298 321.373 C 438.642 321.373 437.298 322.717 437.298 324.373 Z  M 457.142 324.373 L 457.142 331.602 C 457.142 333.258 458.487 334.602 460.142 334.602 L 467.372 334.602 C 469.028 334.602 470.372 333.258 470.372 331.602 L 470.372 324.373 C 470.372 322.717 469.028 321.373 467.372 321.373 L 460.142 321.373 C 458.487 321.373 457.142 322.717 457.142 324.373 Z  M 338.077 344.217 L 338.077 351.446 C 338.077 353.102 339.421 354.446 341.077 354.446 L 358.229 354.446 C 359.884 354.446 361.229 353.102 361.229 351.446 L 361.229 344.217 C 361.229 342.561 359.884 341.217 358.229 341.217 L 341.077 341.217 C 339.421 341.217 338.077 342.561 338.077 344.217 Z  M 367.843 344.217 L 367.843 351.446 C 367.843 353.102 369.188 354.446 370.843 354.446 L 378.073 354.446 C 379.729 354.446 381.073 353.102 381.073 351.446 L 381.073 344.217 C 381.073 342.561 379.729 341.217 378.073 341.217 L 370.843 341.217 C 369.188 341.217 367.843 342.561 367.843 344.217 Z  M 387.688 344.217 L 387.688 351.446 C 387.688 353.102 389.032 354.446 390.688 354.446 L 397.917 354.446 C 399.573 354.446 400.917 353.102 400.917 351.446 L 400.917 344.217 C 400.917 342.561 399.573 341.217 397.917 341.217 L 390.688 341.217 C 389.032 341.217 387.688 342.561 387.688 344.217 Z  M 407.532 344.217 L 407.532 351.446 C 407.532 353.102 408.876 354.446 410.532 354.446 L 417.761 354.446 C 419.417 354.446 420.761 353.102 420.761 351.446 L 420.761 344.217 C 420.761 342.561 419.417 341.217 417.761 341.217 L 410.532 341.217 C 408.876 341.217 407.532 342.561 407.532 344.217 Z  M 427.376 344.217 L 427.376 351.446 C 427.376 353.102 428.72 354.446 430.376 354.446 L 437.606 354.446 C 439.261 354.446 440.606 353.102 440.606 351.446 L 440.606 344.217 C 440.606 342.561 439.261 341.217 437.606 341.217 L 430.376 341.217 C 428.72 341.217 427.376 342.561 427.376 344.217 Z  M 447.22 344.217 L 447.22 351.446 C 447.22 353.102 448.565 354.446 450.22 354.446 L 467.372 354.446 C 469.028 354.446 470.372 353.102 470.372 351.446 L 470.372 344.217 C 470.372 342.561 469.028 341.217 467.372 341.217 L 450.22 341.217 C 448.565 341.217 447.22 342.561 447.22 344.217 Z  M 338.077 364.061 L 338.077 371.291 C 338.077 372.946 339.421 374.291 341.077 374.291 L 348.306 374.291 C 349.962 374.291 351.306 372.946 351.306 371.291 L 351.306 364.061 C 351.306 362.405 349.962 361.061 348.306 361.061 L 341.077 361.061 C 339.421 361.061 338.077 362.405 338.077 364.061 Z  M 357.921 364.061 L 357.921 371.291 C 357.921 372.946 359.265 374.291 360.921 374.291 L 368.151 374.291 C 369.806 374.291 371.151 372.946 371.151 371.291 L 371.151 364.061 C 371.151 362.405 369.806 361.061 368.151 361.061 L 360.921 361.061 C 359.265 361.061 357.921 362.405 357.921 364.061 Z  M 377.765 364.061 L 377.765 371.291 C 377.765 372.946 379.11 374.291 380.765 374.291 L 427.683 374.291 C 429.339 374.291 430.683 372.946 430.683 371.291 L 430.683 364.061 C 430.683 362.405 429.339 361.061 427.683 361.061 L 380.765 361.061 C 379.11 361.061 377.765 362.405 377.765 364.061 Z  M 437.298 364.061 L 437.298 371.291 C 437.298 372.946 438.642 374.291 440.298 374.291 L 447.528 374.291 C 449.183 374.291 450.528 372.946 450.528 371.291 L 450.528 364.061 C 450.528 362.405 449.183 361.061 447.528 361.061 L 440.298 361.061 C 438.642 361.061 437.298 362.405 437.298 364.061 Z  M 457.142 364.061 L 457.142 371.291 C 457.142 372.946 458.487 374.291 460.142 374.291 L 467.372 374.291 C 469.028 374.291 470.372 372.946 470.372 371.291 L 470.372 364.061 C 470.372 362.405 469.028 361.061 467.372 361.061 L 460.142 361.061 C 458.487 361.061 457.142 362.405 457.142 364.061 Z " fill="rgb(101,201,255)" vector-effect="non-scaling-stroke" stroke-width="1" stroke="rgb(101,201,255)" stroke-linejoin="miter" stroke-linecap="butt" stroke-miterlimit="4"/><g><g><g><g><path d="M 618.555 215.518 L 863.888 215.518 C 871.393 215.518 877.485 221.611 877.485 229.116 L 877.485 383.216 C 877.485 390.721 871.393 396.814 863.888 396.814 L 618.555 396.814 C 611.05 396.814 604.958 390.721 604.958 383.216 L 604.958 229.116 C 604.958 221.611 611.05 215.518 618.555 215.518 Z" style="stroke:none;fill:#FFFFFF;stroke-miterlimit:10;"/><path d="M 618.555 215.518 L 863.888 215.518 C 871.393 215.518 877.485 221.611 877.485 229.116 L 877.485 383.216 C 877.485 390.721 871.393 396.814 863.888 396.814 L 618.555 396.814 C 611.05 396.814 604.958 390.721 604.958 383.216 L 604.958 229.116 C 604.958 221.611 611.05 215.518 618.555 215.518 Z" style="fill:none;stroke:#65C9FF;stroke-width:7;stroke-linecap:square;stroke-miterlimit:2;"/><path d="M 577.886 392.041 L 904.557 392.041 C 905.109 392.041 905.557 392.455 905.557 392.965 L 905.557 392.965 C 905.557 403.429 896.365 411.925 885.044 411.925 L 597.399 411.925 C 586.078 411.925 576.886 403.429 576.886 392.965 L 576.886 392.965 C 576.886 392.455 577.334 392.041 577.886 392.041 Z" style="stroke:none;fill:#FFFFFF;stroke-linecap:square;stroke-miterlimit:2;"/><path d="M 577.886 392.041 L 904.557 392.041 C 905.109 392.041 905.557 392.455 905.557 392.965 L 905.557 392.965 C 905.557 403.429 896.365 411.925 885.044 411.925 L 597.399 411.925 C 586.078 411.925 576.886 403.429 576.886 392.965 L 576.886 392.965 C 576.886 392.455 577.334 392.041 577.886 392.041 Z" style="fill:none;stroke:#65C9FF;stroke-width:7;stroke-linecap:square;stroke-miterlimit:2;"/></g><path d="M 626.041 232.969 L 857.625 232.969 C 859.241 232.969 860.552 234.281 860.552 235.896 L 860.552 375.356 C 860.552 376.971 859.241 378.283 857.625 378.283 L 626.041 378.283 C 624.425 378.283 623.114 376.971 623.114 375.356 L 623.114 235.896 C 623.114 234.281 624.425 232.969 626.041 232.969 Z" style="stroke:none;fill:#FFFFFF;stroke-linecap:square;stroke-miterlimit:2;"/><path d="M 626.041 232.969 L 857.625 232.969 C 859.241 232.969 860.552 234.281 860.552 235.896 L 860.552 375.356 C 860.552 376.971 859.241 378.283 857.625 378.283 L 626.041 378.283 C 624.425 378.283 623.114 376.971 623.114 375.356 L 623.114 235.896 C 623.114 234.281 624.425 232.969 626.041 232.969 Z" style="fill:none;stroke:#65C9FF;stroke-width:7;stroke-linecap:square;stroke-miterlimit:2;"/><path d="M 707.751 393.211 L 774.692 393.211 L 774.692 395.55 C 774.692 399.423 771.548 402.568 767.674 402.568 L 714.769 402.568 C 710.896 402.568 707.751 399.423 707.751 395.55 L 707.751 393.211 Z" style="stroke:none;fill:#FFFFFF;stroke-linecap:square;stroke-miterlimit:2;"/><path d="M 707.751 393.211 L 774.692 393.211 L 774.692 395.55 C 774.692 399.423 771.548 402.568 767.674 402.568 L 714.769 402.568 C 710.896 402.568 707.751 399.423 707.751 395.55 L 707.751 393.211 Z" style="fill:none;stroke:#65C9FF;stroke-width:6;stroke-linecap:square;stroke-miterlimit:2;"/></g><circle vector-effect="non-scaling-stroke" cx="741.840429013012" cy="224.24033284134975" r="4.042607559209046" fill="rgb(101,201,255)"/></g></g><path d=" M 528.331 310.714 C 528.215 310.72 528.099 310.736 527.986 310.762 C 511.27 310.966 497.742 324.595 497.742 341.358 L 497.742 349.537 C 497.708 349.741 497.708 349.962 497.742 350.166 L 498.095 369.667 C 498.095 386.557 511.828 400.283 528.711 400.283 C 545.6 400.283 559.327 386.557 559.327 369.667 L 558.974 350.088 C 559.001 349.936 559.001 349.781 558.974 349.629 L 558.974 341.358 C 558.974 324.587 545.44 310.947 528.711 310.755 C 528.586 310.728 528.459 310.714 528.331 310.714 Z  M 526.658 314.23 L 526.658 321.265 C 524.685 321.976 523.256 323.85 523.256 326.05 L 523.256 336.255 C 523.256 338.454 524.685 340.328 526.658 341.039 L 526.658 348.161 L 501.144 348.161 L 501.144 341.358 C 501.144 326.886 512.406 315.113 526.658 314.228 L 526.658 314.23 Z  M 530.059 314.23 C 544.311 315.106 555.573 326.88 555.573 341.358 L 555.573 348.161 L 530.059 348.161 L 530.059 341.038 C 532.026 340.334 533.461 338.454 533.461 336.255 L 533.461 326.05 C 533.461 323.903 531.973 322.316 530.059 321.61 L 530.059 314.23 Z  M 528.258 324.367 C 528.326 324.376 528.392 324.376 528.459 324.367 C 529.36 324.401 530.07 325.148 530.059 326.05 L 530.059 336.255 C 530.069 337.156 529.359 337.901 528.459 337.935 C 528.411 337.935 528.372 337.929 528.331 337.929 C 528.306 337.935 528.285 337.935 528.258 337.935 C 527.357 337.901 526.648 337.156 526.658 336.255 L 526.658 326.05 C 526.658 325.126 527.348 324.422 528.258 324.369 L 528.258 324.367 Z  M 501.144 352.283 L 528.073 352.283 C 528.251 352.317 528.445 352.317 528.624 352.283 L 555.573 352.283 L 555.925 369.667 C 555.925 384.716 543.767 396.881 528.711 396.881 C 513.661 396.881 501.496 384.716 501.496 369.667 L 501.144 352.283 Z " fill="rgb(101,201,255)" vector-effect="non-scaling-stroke" stroke-width="2.6" stroke="rgb(101,201,255)" stroke-linejoin="miter" stroke-linecap="butt" stroke-miterlimit="4"/><path d=" M 47.358 350.166 L 40.907 350.166 C 37.688 350.166 35.078 350.301 35.078 347.082 C 35.078 343.862 37.688 343.283 40.907 343.283 L 47.358 343.283 C 50.545 343.283 53.187 343.817 53.187 347.082 C 53.11 350.346 50.545 350.166 47.358 350.166 Z  M 268.476 195.283 L 18.368 195.283 C 6.632 195.283 0.798 203.193 0.798 215.395 L 0 358.109 C 0 370.311 6.554 376.271 18.368 376.271 L 126.012 375.283 L 126.012 407.283 L 91.504 407.283 C 88.285 407.283 85.675 407.361 85.675 410.58 C 85.675 413.799 88.285 415.311 91.504 415.311 L 195.34 415.311 C 198.559 415.311 201.169 413.799 201.169 410.58 C 201.169 407.361 198.559 407.283 195.34 407.283 L 160.443 407.283 L 160.443 375.283 L 268.476 375.283 C 280.212 375.283 286.798 368.91 286.798 356.708 L 286.798 214.955 C 286.798 202.753 280.29 195.283 268.476 195.283 Z  M 148.863 407.283 L 137.671 407.283 L 137.671 375.283 L 148.863 375.283 L 148.863 407.283 Z  M 268.476 366.745 L 18.368 368.072 C 13.005 368.072 7.814 362.537 7.814 356.708 L 7.814 350.166 L 22.487 350.282 C 25.707 350.282 28.316 350.301 28.316 347.082 C 28.316 343.862 25.707 342.826 22.487 342.826 L 7.814 342.826 L 7.814 214.955 C 7.814 209.126 12.927 203.373 18.368 203.373 L 268.476 203.373 C 273.839 203.373 279.506 209.566 279.506 215.395 L 279.506 342.826 L 72.151 343.283 C 68.932 343.283 66.322 343.94 66.322 347.159 C 66.322 350.379 69.512 350.166 72.732 350.166 L 279.506 351.46 L 279.506 356.708 C 279.506 362.459 273.917 366.745 268.476 366.745 L 268.476 366.745 Z " fill="rgb(101,201,255)" vector-effect="non-scaling-stroke" stroke-width="0.504" stroke="rgb(101,201,255)" stroke-linejoin="miter" stroke-linecap="butt" stroke-miterlimit="4"/><path d=" M 182.86 281.773 L 193.509 281.773 L 193.509 309.86 C 190.966 310.756 189.26 313.153 189.249 315.85 C 189.249 319.378 192.11 322.239 195.639 322.239 C 199.167 322.239 202.028 319.378 202.028 315.85 C 202.028 313.081 200.239 310.742 197.768 309.858 L 197.768 286.032 C 203.551 296.847 214.681 304.376 227.586 305.134 L 227.586 315.85 L 253.143 315.85 L 253.143 290.292 L 227.586 290.292 L 227.586 300.809 C 215.687 300.04 205.211 292.696 200.431 281.773 L 208.418 281.773 L 208.418 256.215 L 200.431 256.215 C 205.097 245.566 215.397 237.977 227.586 237.179 L 227.586 247.696 L 253.143 247.696 L 253.143 222.138 L 227.586 222.138 L 227.586 232.853 C 214.658 233.596 203.551 241.132 197.768 251.955 L 197.768 228.127 C 200.239 227.245 202.028 224.909 202.028 222.138 C 202.028 218.609 199.167 215.749 195.639 215.749 C 192.11 215.749 189.249 218.609 189.249 222.138 C 189.249 224.907 191.038 227.245 193.509 228.129 L 193.509 256.215 L 182.86 256.215 L 182.86 281.773 Z  M 187.119 277.513 L 187.119 260.475 L 194.906 260.475 C 195.318 260.599 195.759 260.599 196.171 260.475 L 204.158 260.475 L 204.158 277.513 L 196.037 277.513 C 195.752 277.455 195.458 277.455 195.172 277.513 L 187.119 277.513 Z  M 231.845 311.59 L 231.845 294.551 L 248.884 294.551 L 248.884 311.59 L 231.845 311.59 Z  M 231.845 243.436 L 231.845 226.398 L 248.884 226.398 L 248.884 243.436 L 231.845 243.436 Z " fill="rgb(101,201,255)" vector-effect="non-scaling-stroke" stroke-width="1" stroke="rgb(101,201,255)" stroke-linejoin="miter" stroke-linecap="butt" stroke-miterlimit="4"/><path d=" M 37.747 215.749 C 29.482 215.749 22.702 222.529 22.702 230.793 L 22.702 326.076 L 153.089 326.076 L 153.089 230.793 C 153.089 222.529 146.309 215.749 138.044 215.749 L 37.747 215.749 Z  M 37.747 223.283 L 43.798 223.283 L 43.798 237.179 L 29.798 237.179 L 29.798 230.793 C 29.798 227.975 34.929 223.283 37.747 223.283 Z  M 52.792 223.283 L 62.821 223.283 L 62.821 237.179 L 52.792 237.179 L 52.792 223.283 Z  M 72.151 223.283 L 138.044 223.283 C 140.863 223.283 145.798 227.975 145.798 230.793 L 145.798 237.283 L 72.151 237.179 L 72.151 223.283 Z  M 29.798 244.283 L 145.798 245.283 L 145.798 319.582 L 29.798 318.978 L 29.798 244.283 Z " fill="rgb(101,201,255)"/><path d=" M 696.708 285.921 C 695.481 285.921 693.243 286.05 692.32 286.973 L 685.716 294.183 C 685.346 294.382 685.945 293.832 685.716 294.183 L 663.985 316.159 C 662.139 318.009 661.581 321.511 663.426 323.361 L 692.32 352.736 C 694.175 354.571 699.57 354.571 701.425 352.736 L 730.295 324.063 C 732.141 322.213 732.141 318.009 730.295 316.159 L 700.561 286.973 C 699.674 286.088 697.962 285.911 696.708 285.921 Z  M 696.708 290.867 L 725.854 320.013 L 696.708 349.159 L 667.563 320.013 L 687.73 299.848 L 691.992 304.109 C 691.882 304.531 691.831 304.966 691.838 305.402 C 691.838 307.199 692.817 308.741 694.273 309.588 L 694.273 330.438 C 692.817 331.285 691.838 332.824 691.838 334.623 C 691.838 337.313 694.019 339.494 696.708 339.494 C 699.398 339.494 701.579 337.313 701.579 334.623 C 701.579 332.826 700.6 331.285 699.144 330.438 L 699.144 311.339 L 706.602 318.795 C 706.225 320.254 706.544 321.805 707.467 322.997 C 708.39 324.188 709.812 324.884 711.319 324.883 C 714.008 324.882 716.187 322.702 716.187 320.013 C 716.189 318.505 715.493 317.082 714.302 316.159 C 713.11 315.235 711.558 314.916 710.099 315.294 L 701.425 306.62 C 701.803 305.161 701.484 303.609 700.561 302.418 C 699.638 301.227 698.215 300.531 696.708 300.532 C 696.273 300.525 695.839 300.576 695.418 300.685 L 691.156 296.424 L 696.708 290.867 Z " fill="rgb(101,201,255)" vector-effect="non-scaling-stroke" stroke-width="1" stroke="rgb(101,201,255)" stroke-linejoin="miter" stroke-linecap="butt" stroke-miterlimit="4"/><path d=" M 774.856 285.921 C 770.924 285.921 767.106 289.444 767.106 293.376 C 767.106 296.816 770.176 299.856 773.426 300.525 L 773.426 334.365 C 770.176 335.034 767.106 338.549 767.106 341.989 C 767.106 345.921 770.924 349.876 774.856 349.876 C 778.788 349.876 782.734 345.921 782.734 341.989 C 782.734 338.565 779.56 335.052 776.33 334.365 C 776.599 329.505 778.352 328 780.977 326.319 C 783.837 324.493 787.947 323.538 792.237 322.829 C 796.526 322.119 801.4 321.263 804.974 318.978 C 808.297 316.856 810.193 313.192 810.512 307.54 C 813.799 306.904 816.395 303.859 816.395 300.391 C 816.395 296.459 813.114 293.134 809.182 293.134 C 805.25 293.134 801.969 296.593 801.969 300.525 C 801.969 303.95 804.467 306.853 807.697 307.54 C 807.428 312.394 805.796 314.537 803.171 316.214 C 800.312 318.034 796.08 318.873 791.79 319.582 C 787.501 320.291 782.72 321.252 779.145 323.536 C 777.921 324.322 777.204 325.155 776.33 326.319 L 776.286 300.525 C 779.536 299.855 782.133 296.816 782.133 293.376 C 782.133 289.444 778.788 285.921 774.856 285.921 Z  M 774.856 289.087 C 777.241 289.087 779.145 290.991 779.145 293.376 C 779.145 295.761 777.241 297.666 774.856 297.666 C 772.471 297.666 770.567 295.761 770.567 293.376 C 770.567 290.991 772.471 289.087 774.856 289.087 Z  M 809.182 296.139 C 811.567 296.139 813.39 298.006 813.39 300.391 C 813.39 302.776 811.556 304.555 809.171 304.555 C 806.786 304.555 804.974 302.91 804.974 300.525 C 804.974 298.14 806.797 296.139 809.182 296.139 Z  M 774.856 337.7 C 777.241 337.7 779.145 339.604 779.145 341.989 C 779.145 344.374 777.241 346.279 774.856 346.279 C 772.471 346.279 770.567 344.374 770.567 341.989 C 770.567 339.604 772.471 337.7 774.856 337.7 Z " fill="rgb(101,201,255)" vector-effect="non-scaling-stroke" stroke-width="3" stroke="rgb(101,201,255)" stroke-linejoin="miter" stroke-linecap="butt" stroke-miterlimit="4"/><g><path d="M 582.724 124.652 L 636.524 124.652 C 644.1 124.652 650.251 130.803 650.251 138.379 L 650.251 255.266 C 650.251 262.843 644.1 268.994 636.524 268.994 L 582.724 268.994 C 575.148 268.994 568.997 262.843 568.997 255.266 L 568.997 138.379 C 568.997 130.803 575.148 124.652 582.724 124.652 Z" style="stroke:none;fill:#FFFFFF;stroke-linecap:square;stroke-miterlimit:2;"/><path d="M 582.724 124.652 L 636.524 124.652 C 644.1 124.652 650.251 130.803 650.251 138.379 L 650.251 255.266 C 650.251 262.843 644.1 268.994 636.524 268.994 L 582.724 268.994 C 575.148 268.994 568.997 262.843 568.997 255.266 L 568.997 138.379 C 568.997 130.803 575.148 124.652 582.724 124.652 Z" style="fill:none;stroke:#65C9FF;stroke-width:7;stroke-linecap:square;stroke-miterlimit:2;"/><rect x="568.997" y="142.195" width="81.254" height="105.261" transform="matrix(1,0,0,1,0,0)" fill="rgb(255,255,255)" vector-effect="non-scaling-stroke" stroke-width="7" stroke="rgb(101,201,255)" stroke-linejoin="miter" stroke-linecap="square" stroke-miterlimit="2"/><circle vector-effect="non-scaling-stroke" cx="611.1240171102195" cy="258.08946105179643" r="5.1934793487623665" fill="rgb(101,201,255)"/><path d="M 590.453 131.115 L 631.795 131.115 C 633.222 131.115 634.379 132.273 634.379 133.699 L 634.379 133.699 C 634.379 135.125 633.222 136.283 631.795 136.283 L 590.453 136.283 C 589.027 136.283 587.869 135.125 587.869 133.699 L 587.869 133.699 C 587.869 132.273 589.027 131.115 590.453 131.115 Z" style="stroke:none;fill:#65C9FF;stroke-linecap:square;stroke-miterlimit:2;"/><path d=" M 601.516 210.582 L 593.916 202.982 C 592.355 201.421 592.355 198.886 593.916 197.325 L 601.516 189.725 C 602.297 188.944 602.297 187.677 601.516 186.897 L 600.74 186.121 C 599.96 185.34 598.692 185.34 597.912 186.121 L 586.708 197.325 C 585.147 198.886 585.147 201.421 586.708 202.982 L 597.912 214.186 C 598.692 214.966 599.96 214.966 600.74 214.186 L 601.516 213.41 C 602.297 212.629 602.297 211.362 601.516 210.582 Z  M 617.732 210.582 L 625.332 202.982 C 626.893 201.421 626.893 198.886 625.332 197.325 L 617.732 189.725 C 616.951 188.944 616.951 187.677 617.732 186.897 L 618.508 186.121 C 619.288 185.34 620.555 185.34 621.336 186.121 L 632.54 197.325 C 634.101 198.886 634.101 201.421 632.54 202.982 L 621.336 214.186 C 620.555 214.966 619.288 214.966 618.508 214.186 L 617.732 213.41 C 616.951 212.629 616.951 211.362 617.732 210.582 Z " fill="rgb(101,201,255)" vector-effect="non-scaling-stroke" stroke-width="2" stroke="rgb(101,201,255)" stroke-linejoin="miter" stroke-linecap="round" stroke-miterlimit="4"/></g><g><path d=" M 993.626 310.059 L 989.322 310.059 L 985.755 294.045 C 985.556 293.153 984.763 292.518 983.846 292.518 L 936.898 292.518 C 935.982 292.518 935.188 293.153 934.989 294.045 L 931.421 310.059 L 927.118 310.059 C 926.037 310.059 925.162 310.932 925.162 312.008 L 925.162 329.549 C 925.162 330.625 926.037 331.498 927.118 331.498 L 929.123 331.498 L 931.03 405.607 C 931.057 406.664 931.925 407.508 932.986 407.508 L 933.035 413.757 C 933.035 414.834 933.911 415.706 934.991 415.706 L 985.851 415.706 C 986.931 415.706 987.807 414.834 987.807 413.757 L 987.758 407.508 C 988.819 407.508 989.687 406.664 989.714 405.607 L 991.621 331.498 L 993.626 331.498 C 994.707 331.498 995.582 330.625 995.582 329.549 L 995.582 312.008 C 995.582 310.932 994.707 310.059 993.626 310.059 Z  M 938.463 296.416 L 982.281 296.416 L 985.322 310.059 L 935.425 310.059 L 938.463 296.416 Z  M 983.895 411.808 L 936.947 411.808 L 936.898 407.508 L 983.846 407.508 L 983.895 411.808 Z  M 985.851 403.61 L 934.893 403.61 L 933.037 331.498 L 966.24 331.498 L 966.24 338.191 L 957.408 343.47 C 956.82 343.823 956.46 344.456 956.46 345.141 L 956.46 372.426 C 956.46 373.503 957.335 374.375 958.416 374.375 L 977.977 374.375 C 979.058 374.375 979.933 373.503 979.933 372.426 L 979.933 345.141 C 979.933 344.456 979.573 343.823 978.985 343.47 L 970.153 338.191 L 970.153 331.498 L 987.707 331.498 L 985.851 403.61 Z  M 968.197 341.566 L 976.021 346.244 L 976.021 370.477 L 960.372 370.477 L 960.372 346.244 L 968.197 341.566 Z  M 991.67 327.6 L 929.074 327.6 L 929.074 313.957 L 991.67 313.957 L 991.67 327.6 Z " fill="rgb(101,201,255)" vector-effect="non-scaling-stroke" stroke-width="1.5" stroke="rgb(101,201,255)" stroke-linejoin="miter" stroke-linecap="butt" stroke-miterlimit="4"/><path d=" M 966.741 366.832 L 969.19 366.832 C 970.543 366.832 971.639 365.74 971.639 364.392 C 971.639 363.044 970.543 361.952 969.19 361.952 L 966.741 361.952 C 965.388 361.952 964.291 363.044 964.291 364.392 C 964.291 365.74 965.388 366.832 966.741 366.832 Z " fill="rgb(101,201,255)"/><path d=" M 960.64 391.389 L 936.215 391.389 C 934.988 391.389 933.994 392.379 933.994 393.601 C 933.994 394.823 934.988 395.814 936.215 395.814 L 960.64 395.814 C 961.867 395.814 962.861 394.823 962.861 393.601 C 962.861 392.379 961.867 391.389 960.64 391.389 Z " fill="rgb(101,201,255)"/><path d=" M 969.419 391.389 L 967.198 391.389 C 965.972 391.389 964.978 392.379 964.978 393.601 C 964.978 394.823 965.972 395.814 967.198 395.814 L 969.419 395.814 C 970.645 395.814 971.639 394.823 971.639 393.601 C 971.639 392.379 970.645 391.389 969.419 391.389 Z " fill="rgb(101,201,255)"/><path d=" M 965.133 316.997 C 963.878 316.997 962.861 318.011 962.861 319.261 C 962.861 320.511 963.878 321.525 965.133 321.525 L 992.399 321.525 C 993.654 321.525 994.672 320.511 994.672 319.261 C 994.672 318.011 993.654 316.997 992.399 316.997 L 965.133 316.997 Z " fill="rgb(101,201,255)"/><path d=" M 959.048 316.997 L 956.776 316.997 C 955.521 316.997 954.504 318.011 954.504 319.261 C 954.504 320.511 955.521 321.525 956.776 321.525 L 959.048 321.525 C 960.303 321.525 961.32 320.511 961.32 319.261 C 961.32 318.011 960.303 316.997 959.048 316.997 Z " fill="rgb(101,201,255)"/></g></g></svg>