<svg xmlns="http://www.w3.org/2000/svg" viewBox="0 0 1000 415"><style>.a{fill:rgb(101,201,255);}.b{fill:rgb(101,201,255);stroke:rgb(101,201,255);}.c{fill:none;stroke-width:7;stroke:#65C9FF;}.d{fill:#FFF;}.e{fill:rgb(101,201,255);stroke-width:3;stroke:rgb(101,201,255);}.f{fill:rgb(101,201,255);stroke-width:2;stroke:rgb(101,201,255);}</style><defs><clipPath id="_clipPath_3adulTMicw1xMyKCUNCcAaIjQBuSNMEE"><rect width="1000" height="415"/></clipPath></defs><g clip-path="url(#_clipPath_3adulTMicw1xMyKCUNCcAaIjQBuSNMEE)"><path d="M397.8 93.3C398.6 94.1 399.6 94.5 400.5 94.5 401.5 94.5 402.5 94.1 403.2 93.3 404.7 91.9 404.7 89.5 403.2 88L394 78.7 403.2 69.5C404.7 68 404.7 65.6 403.2 64.2 401.7 62.7 399.3 62.7 397.8 64.2L385.9 76.1C385.2 76.8 384.8 77.7 384.8 78.7 384.8 79.8 385.2 80.7 385.9 81.4L397.8 93.3Z" class="a"/><path d="M435.5 78.7L426.3 88C424.8 89.5 424.8 91.9 426.3 93.3 427.1 94.1 428 94.5 429 94.5 430 94.5 430.9 94.1 431.7 93.3L443.6 81.4C445.1 79.9 445.1 77.5 443.6 76.1L431.7 64.2C430.2 62.7 427.8 62.7 426.3 64.2 424.8 65.6 424.8 68 426.3 69.5L435.5 78.7Z" class="a"/><path d="M409.1 94.2C409.6 94.4 410 94.5 410.5 94.5 412 94.5 413.4 93.5 414 92L423.4 68.2C424.2 66.3 423.2 64.1 421.2 63.3 419.3 62.5 417.1 63.5 416.3 65.4L407 89.3C406.2 91.2 407.2 93.4 409.1 94.2Z" class="a"/><path d="M390.8 116.7L416.4 116.7C418.5 116.7 420.2 115 420.2 112.9 420.2 110.8 418.5 109.1 416.4 109.1L390.8 109.1C388.7 109.1 387 110.8 387 112.9 387 115 388.7 116.7 390.8 116.7Z" class="a"/><path d="M475.3 109.1L430.3 109.1C428.2 109.1 426.5 110.8 426.5 112.9 426.5 115 428.2 116.7 430.3 116.7L475.3 116.7C477.4 116.7 479.1 115 479.1 112.9 479.1 110.8 477.4 109.1 475.3 109.1Z" class="a"/><path d="M461.4 125.2C459.3 125.2 457.6 126.9 457.6 129 457.6 131.1 459.3 132.8 461.4 132.8L468 132.8C470.1 132.8 471.8 131.1 471.8 129 471.8 126.9 470.1 125.2 468 125.2L461.4 125.2Z" class="a"/><path d="M451.4 129C451.4 126.9 449.8 125.2 447.8 125.2L416.8 125.2C414.8 125.2 413.2 126.9 413.2 129 413.2 131.1 414.8 132.8 416.8 132.8L447.8 132.8C449.8 132.8 451.4 131.1 451.4 129Z" class="a"/><path d="M476.3 129C476.3 131.1 478 132.8 480.1 132.8L492.5 132.8C494.6 132.8 496.3 131.1 496.3 129 496.3 126.9 494.6 125.2 492.5 125.2L480.1 125.2C478 125.2 476.3 126.9 476.3 129Z" class="a"/><path d="M455.6 81.8L468.7 81.8C470.8 81.8 472.5 80.1 472.5 78 472.5 75.9 470.8 74.2 468.7 74.2L455.6 74.2C453.5 74.2 451.8 75.9 451.8 78 451.8 80.1 453.5 81.8 455.6 81.8Z" class="a"/><path d="M483.4 81.8L563.4 81.8C565.5 81.8 567.2 80.1 567.2 78 567.2 75.9 565.5 74.2 563.4 74.2L483.4 74.2C481.3 74.2 479.6 75.9 479.6 78 479.6 80.1 481.3 81.8 483.4 81.8L483.4 81.8Z" class="a"/><path d="M551.3 90.9L518.8 90.9C516.7 90.9 515 92.6 515 94.7 515 96.8 516.7 98.5 518.8 98.5L551.3 98.5C553.3 98.5 555.1 96.8 555.1 94.7 555.1 92.6 553.3 90.9 551.3 90.9Z" class="a"/><path d="M506.7 90.9L495.5 90.9C493.4 90.9 491.8 92.6 491.8 94.7 491.8 96.8 493.4 98.5 495.5 98.5L506.7 98.5C508.8 98.5 510.5 96.8 510.5 94.7 510.5 92.6 508.8 90.9 506.7 90.9Z" class="a"/><path d="M455.6 98.5L482.9 98.5C485 98.5 486.7 96.8 486.7 94.7 486.7 92.6 485 90.9 482.9 90.9L455.6 90.9C453.5 90.9 451.8 92.6 451.8 94.7 451.8 96.8 453.5 98.5 455.6 98.5Z" class="a"/><path d="M447.7 141L422.1 141C420 141 418.3 142.7 418.3 144.8 418.3 146.9 420 148.6 422.1 148.6L447.7 148.6C449.7 148.6 451.4 146.9 451.4 144.8 451.4 142.7 449.7 141 447.7 141Z" class="a"/><path d="M406 141L390.1 141C388.4 141 387 142.7 387 144.8 387 146.9 388.4 148.6 390.1 148.6L406 148.6C407.7 148.6 409.1 146.9 409.1 144.8 409.1 142.7 407.7 141 406 141Z" class="a"/><path d="M494 141L460.6 141C458.5 141 456.8 142.7 456.8 144.8 456.8 146.9 458.5 148.6 460.6 148.6L494 148.6C496.1 148.6 497.8 146.9 497.8 144.8 497.8 142.7 496.1 141 494 141L494 141Z" class="a"/><path d="M539.2 121.5L521 121.5C518.9 121.5 517.2 123.2 517.2 125.3 517.2 127.4 518.9 129.1 521 129.1L539.2 129.1C541.3 129.1 543 127.4 543 125.3 543 123.2 541.3 121.5 539.2 121.5L539.2 121.5Z" class="a"/><path d="M570.9 129.1L596.7 129.1C598.8 129.1 600.5 127.4 600.5 125.3 600.5 123.2 598.8 121.5 596.7 121.5L570.9 121.5C568.8 121.5 567.1 123.2 567.1 125.3 567.1 127.4 568.8 129.1 570.9 129.1Z" class="a"/><path d="M558 121.5L552.1 121.5C550 121.5 548.3 123.2 548.3 125.3 548.3 127.4 550 129.1 552.1 129.1L558 129.1C560.1 129.1 561.8 127.4 561.8 125.3 561.8 123.2 560.1 121.5 558 121.5Z" class="a"/><path d="M521 170.5L539.2 170.5C541.3 170.5 543 168.8 543 166.7 543 164.6 541.3 162.9 539.2 162.9L521 162.9C518.9 162.9 517.2 164.6 517.2 166.7 517.2 168.8 518.9 170.5 521 170.5L521 170.5Z" class="a"/><path d="M570.9 170.5L596.7 170.5C598.8 170.5 600.5 168.8 600.5 166.7 600.5 164.6 598.8 162.9 596.7 162.9L570.9 162.9C568.8 162.9 567.1 164.6 567.1 166.7 567.1 168.8 568.8 170.5 570.9 170.5Z" class="a"/><path d="M552.1 170.5L558 170.5C560.1 170.5 561.8 168.8 561.8 166.7 561.8 164.6 560.1 162.9 558 162.9L552.1 162.9C550 162.9 548.3 164.6 548.3 166.7 548.3 168.8 550 170.5 552.1 170.5Z" class="a"/><path d="M539.2 204.3L521 204.3C518.9 204.3 517.2 206 517.2 208.1 517.2 210.2 518.9 211.9 521 211.9L539.2 211.9C541.3 211.9 543 210.2 543 208.1 543 206 541.3 204.3 539.2 204.3L539.2 204.3Z" class="a"/><path d="M596.7 204.3L570.9 204.3C568.8 204.3 567.1 206 567.1 208.1 567.1 210.2 568.8 211.9 570.9 211.9L596.7 211.9C598.8 211.9 600.5 210.2 600.5 208.1 600.5 206 598.8 204.3 596.7 204.3L596.7 204.3Z" class="a"/><path d="M558 204.3L552.1 204.3C550 204.3 548.3 206 548.3 208.1 548.3 210.2 550 211.9 552.1 211.9L558 211.9C560.1 211.9 561.8 210.2 561.8 208.1 561.8 206 560.1 204.3 558 204.3Z" class="a"/><path d="M610.8-1.2L384.7-1.2C375.5-1.2 368 6.3 368 15.5L368 199.3C368 208.5 375.5 216 384.7 216L399 216C401.1 216 402.8 214.3 402.8 212.2 402.8 210.1 401.1 208.4 399 208.4L384.7 208.4C379.7 208.4 375.6 204.3 375.6 199.3L375.6 184.9 513.9 184.9 513.9 191.4 510.9 191.4C506.8 191.4 503.4 194.8 503.4 198.9L503.4 208.4 422.1 208.4C420 208.4 418.3 210.1 418.3 212.2 418.3 214.3 420 216 422.1 216L458.6 216 458.6 229.6 447.1 229.6C439.5 229.6 433.2 235.8 433.2 243.5L433.2 251.7C433.2 255.2 436.1 258 439.6 258L555.6 258C559.1 258 561.9 255.2 561.9 251.7L561.9 243.5C561.9 235.8 555.7 229.6 548 229.6L536.6 229.6 536.6 224.8 606.8 224.8C610.9 224.8 614.2 221.5 614.2 217.3L614.2 215.5C621.7 213.8 627.2 207.2 627.2 199.3L627.5 15.5C627.5 6.3 620-1.2 610.8-1.2L610.8-1.2ZM511 175.8L511 157.6 606.7 157.6 606.7 175.8 511 175.8ZM521.5 150L521.5 142 596.2 142 596.2 150 521.5 150ZM596.2 183.4L596.2 191.4 521.5 191.4 521.5 183.4 596.2 183.4ZM466.2 216L503.4 216 503.4 217.3C503.4 221.5 506.8 224.8 510.9 224.8L529 224.8 529 229.6 466.2 229.6 466.2 216ZM548 237.2C551.5 237.2 554.3 240 554.3 243.5L554.3 250.4 440.8 250.4 440.8 243.5C440.8 240 443.7 237.2 447.1 237.2L548 237.2ZM606.7 217.2L511 217.2 511 199 606.7 199 606.7 217.2ZM619.6 199.3C619.6 203 617.4 206.1 614.2 207.6L614.2 198.9C614.2 194.8 610.9 191.4 606.8 191.4L603.8 191.4 603.8 184.9 619.6 184.9 619.6 199.3ZM619.6 177.3L614.1 177.3C614.2 176.8 614.2 157.5 614.2 157.5 614.2 153.4 610.9 150 606.8 150L603.8 150 603.8 142 606.8 142C610.9 142 614.2 138.7 614.2 134.6L614.2 116.1C614.2 112 610.9 108.6 606.8 108.6L585.3 108.6C583.2 108.6 581.5 110.3 581.5 112.4 581.5 114.5 583.2 116.2 585.3 116.2L606.7 116.2 606.7 134.4 511 134.4 511 116.2 561.7 116.2C563.8 116.2 565.5 114.5 565.5 112.4 565.5 110.3 563.8 108.6 561.7 108.6L510.9 108.6C506.8 108.6 503.4 112 503.4 116.1L503.4 134.6C503.4 138.7 506.8 142 510.9 142L513.9 142 513.9 150 510.9 150C506.8 150 503.4 153.4 503.4 157.5 503.4 157.5 503.5 176.8 503.6 177.3L375.6 177.3 375.6 50.5 619.6 50.5 619.6 177.3ZM619.6 42.9L375.8 42.9 375.8 15.5C375.8 10.5 379.9 6.4 385 6.4L610.5 6.4C615.5 6.4 619.6 10.5 619.6 15.5L619.6 42.9Z" class="a"/><path d="M396 13.4C389.8 13.4 384.8 18.4 384.8 24.5 384.8 30.7 389.8 35.7 396 35.7 402.1 35.7 407.1 30.7 407.1 24.5 407.1 18.4 402.1 13.4 396 13.4ZM396 28.1C394 28.1 392.4 26.5 392.4 24.5 392.4 22.6 394 21 396 21 397.9 21 399.5 22.6 399.5 24.5 399.5 26.5 397.9 28.1 396 28.1Z" class="a"/><path d="M424.4 13.4C418.2 13.4 413.2 18.4 413.2 24.5 413.2 30.7 418.2 35.7 424.4 35.7 430.5 35.7 435.5 30.7 435.5 24.5 435.5 18.4 430.5 13.4 424.4 13.4ZM424.4 28.1C422.4 28.1 420.8 26.5 420.8 24.5 420.8 22.6 422.4 21 424.4 21 426.3 21 427.9 22.6 427.9 24.5 427.9 26.5 426.3 28.1 424.4 28.1Z" class="a"/><path d="M452.7 13.4C446.6 13.4 441.6 18.4 441.6 24.5 441.6 30.7 446.6 35.7 452.7 35.7 458.9 35.7 463.9 30.7 463.9 24.5 463.9 18.4 458.9 13.4 452.7 13.4ZM452.7 28.1C450.8 28.1 449.2 26.5 449.2 24.5 449.2 22.6 450.8 21 452.7 21 454.7 21 456.3 22.6 456.3 24.5 456.3 26.5 454.7 28.1 452.7 28.1Z" class="a"/><path d="M443.7 258C443.7 268.2 441.3 272.8 438.2 275.3 435.1 277.8 430.4 278.6 425.1 279.3 419.8 280 413.8 280.7 408.9 284.7 404.8 288 402 293.4 401.1 301.5L334.8 301.5C327.5 301.5 321.5 307.5 321.5 314.8L321.5 380.9C321.5 388.2 327.5 394.1 334.8 394.1L473.7 394.1C481 394.1 486.9 388.2 486.9 380.9L486.9 314.8C486.9 307.5 481 301.5 473.7 301.5L407.8 301.5C408.6 295.1 410.5 291.8 413 289.9 416.1 287.4 420.7 286.7 426 285.9 431.4 285.2 437.4 284.5 442.4 280.4 447.3 276.4 450.3 269.3 450.3 258L443.7 258ZM334.8 308.1L473.7 308.1C477.4 308.1 480.3 311.1 480.3 314.8L480.3 380.9C480.3 384.6 477.4 387.5 473.7 387.5L334.8 387.5C331.1 387.5 328.2 384.6 328.2 380.9L328.2 314.8C328.2 311.1 331.1 308.1 334.8 308.1ZM338.1 324.4L338.1 331.6C338.1 333.3 339.4 334.6 341.1 334.6L348.3 334.6C350 334.6 351.3 333.3 351.3 331.6L351.3 324.4C351.3 322.7 350 321.4 348.3 321.4L341.1 321.4C339.4 321.4 338.1 322.7 338.1 324.4ZM357.9 324.4L357.9 331.6C357.9 333.3 359.3 334.6 360.9 334.6L368.2 334.6C369.8 334.6 371.2 333.3 371.2 331.6L371.2 324.4C371.2 322.7 369.8 321.4 368.2 321.4L360.9 321.4C359.3 321.4 357.9 322.7 357.9 324.4ZM377.8 324.4L377.8 331.6C377.8 333.3 379.1 334.6 380.8 334.6L388 334.6C389.7 334.6 391 333.3 391 331.6L391 324.4C391 322.7 389.7 321.4 388 321.4L380.8 321.4C379.1 321.4 377.8 322.7 377.8 324.4ZM397.6 324.4L397.6 331.6C397.6 333.3 399 334.6 400.6 334.6L407.8 334.6C409.5 334.6 410.8 333.3 410.8 331.6L410.8 324.4C410.8 322.7 409.5 321.4 407.8 321.4L400.6 321.4C399 321.4 397.6 322.7 397.6 324.4ZM417.5 324.4L417.5 331.6C417.5 333.3 418.8 334.6 420.5 334.6L427.7 334.6C429.3 334.6 430.7 333.3 430.7 331.6L430.7 324.4C430.7 322.7 429.3 321.4 427.7 321.4L420.5 321.4C418.8 321.4 417.5 322.7 417.5 324.4ZM437.3 324.4L437.3 331.6C437.3 333.3 438.6 334.6 440.3 334.6L447.5 334.6C449.2 334.6 450.5 333.3 450.5 331.6L450.5 324.4C450.5 322.7 449.2 321.4 447.5 321.4L440.3 321.4C438.6 321.4 437.3 322.7 437.3 324.4ZM457.1 324.4L457.1 331.6C457.1 333.3 458.5 334.6 460.1 334.6L467.4 334.6C469 334.6 470.4 333.3 470.4 331.6L470.4 324.4C470.4 322.7 469 321.4 467.4 321.4L460.1 321.4C458.5 321.4 457.1 322.7 457.1 324.4ZM338.1 344.2L338.1 351.4C338.1 353.1 339.4 354.4 341.1 354.4L358.2 354.4C359.9 354.4 361.2 353.1 361.2 351.4L361.2 344.2C361.2 342.6 359.9 341.2 358.2 341.2L341.1 341.2C339.4 341.2 338.1 342.6 338.1 344.2ZM367.8 344.2L367.8 351.4C367.8 353.1 369.2 354.4 370.8 354.4L378.1 354.4C379.7 354.4 381.1 353.1 381.1 351.4L381.1 344.2C381.1 342.6 379.7 341.2 378.1 341.2L370.8 341.2C369.2 341.2 367.8 342.6 367.8 344.2ZM387.7 344.2L387.7 351.4C387.7 353.1 389 354.4 390.7 354.4L397.9 354.4C399.6 354.4 400.9 353.1 400.9 351.4L400.9 344.2C400.9 342.6 399.6 341.2 397.9 341.2L390.7 341.2C389 341.2 387.7 342.6 387.7 344.2ZM407.5 344.2L407.5 351.4C407.5 353.1 408.9 354.4 410.5 354.4L417.8 354.4C419.4 354.4 420.8 353.1 420.8 351.4L420.8 344.2C420.8 342.6 419.4 341.2 417.8 341.2L410.5 341.2C408.9 341.2 407.5 342.6 407.5 344.2ZM427.4 344.2L427.4 351.4C427.4 353.1 428.7 354.4 430.4 354.4L437.6 354.4C439.3 354.4 440.6 353.1 440.6 351.4L440.6 344.2C440.6 342.6 439.3 341.2 437.6 341.2L430.4 341.2C428.7 341.2 427.4 342.6 427.4 344.2ZM447.2 344.2L447.2 351.4C447.2 353.1 448.6 354.4 450.2 354.4L467.4 354.4C469 354.4 470.4 353.1 470.4 351.4L470.4 344.2C470.4 342.6 469 341.2 467.4 341.2L450.2 341.2C448.6 341.2 447.2 342.6 447.2 344.2ZM338.1 364.1L338.1 371.3C338.1 372.9 339.4 374.3 341.1 374.3L348.3 374.3C350 374.3 351.3 372.9 351.3 371.3L351.3 364.1C351.3 362.4 350 361.1 348.3 361.1L341.1 361.1C339.4 361.1 338.1 362.4 338.1 364.1ZM357.9 364.1L357.9 371.3C357.9 372.9 359.3 374.3 360.9 374.3L368.2 374.3C369.8 374.3 371.2 372.9 371.2 371.3L371.2 364.1C371.2 362.4 369.8 361.1 368.2 361.1L360.9 361.1C359.3 361.1 357.9 362.4 357.9 364.1ZM377.8 364.1L377.8 371.3C377.8 372.9 379.1 374.3 380.8 374.3L427.7 374.3C429.3 374.3 430.7 372.9 430.7 371.3L430.7 364.1C430.7 362.4 429.3 361.1 427.7 361.1L380.8 361.1C379.1 361.1 377.8 362.4 377.8 364.1ZM437.3 364.1L437.3 371.3C437.3 372.9 438.6 374.3 440.3 374.3L447.5 374.3C449.2 374.3 450.5 372.9 450.5 371.3L450.5 364.1C450.5 362.4 449.2 361.1 447.5 361.1L440.3 361.1C438.6 361.1 437.3 362.4 437.3 364.1ZM457.1 364.1L457.1 371.3C457.1 372.9 458.5 374.3 460.1 374.3L467.4 374.3C469 374.3 470.4 372.9 470.4 371.3L470.4 364.1C470.4 362.4 469 361.1 467.4 361.1L460.1 361.1C458.5 361.1 457.1 362.4 457.1 364.1Z" vector-effect="non-scaling-stroke" class="b"/><path d="M631.8 215.5L877.1 215.5C884.6 215.5 890.7 221.6 890.7 229.1L890.7 383.2C890.7 390.7 884.6 396.8 877.1 396.8L631.8 396.8C624.3 396.8 618.2 390.7 618.2 383.2L618.2 229.1C618.2 221.6 624.3 215.5 631.8 215.5Z" class="c"/><path d="M591.1 392L917.8 392C918.3 392 918.8 392.5 918.8 393L918.8 393C918.8 403.4 909.6 411.9 898.3 411.9L610.6 411.9C599.3 411.9 590.1 403.4 590.1 393L590.1 393C590.1 392.5 590.6 392 591.1 392Z" class="d"/><path d="M591.1 392L917.8 392C918.3 392 918.8 392.5 918.8 393L918.8 393C918.8 403.4 909.6 411.9 898.3 411.9L610.6 411.9C599.3 411.9 590.1 403.4 590.1 393L590.1 393C590.1 392.5 590.6 392 591.1 392Z" class="c"/><path d="M639.3 233L870.9 233C872.5 233 873.8 234.3 873.8 235.9L873.8 375.4C873.8 377 872.5 378.3 870.9 378.3L639.3 378.3C637.7 378.3 636.3 377 636.3 375.4L636.3 235.9C636.3 234.3 637.7 233 639.3 233Z" class="c"/><path d="M721 393.2L787.9 393.2 787.9 395.6C787.9 399.4 784.8 402.6 780.9 402.6L728 402.6C724.1 402.6 721 399.4 721 395.6L721 393.2Z" style="fill:none;stroke-width:6;stroke:#65C9FF"/><circle vector-effect="non-scaling-stroke" cx="755.1" cy="224.2" r="4" class="a"/><path d="M528.3 310.7C528.2 310.7 528.1 310.7 528 310.8 511.3 311 497.7 324.6 497.7 341.4L497.7 349.5C497.7 349.7 497.7 350 497.7 350.2L498.1 369.7C498.1 386.6 511.8 400.3 528.7 400.3 545.6 400.3 559.3 386.6 559.3 369.7L559 350.1C559 349.9 559 349.8 559 349.6L559 341.4C559 324.6 545.4 310.9 528.7 310.8 528.6 310.7 528.5 310.7 528.3 310.7ZM526.7 314.2L526.7 321.3C524.7 322 523.3 323.9 523.3 326.1L523.3 336.3C523.3 338.5 524.7 340.3 526.7 341L526.7 348.2 501.1 348.2 501.1 341.4C501.1 326.9 512.4 315.1 526.7 314.2L526.7 314.2ZM530.1 314.2C544.3 315.1 555.6 326.9 555.6 341.4L555.6 348.2 530.1 348.2 530.1 341C532 340.3 533.5 338.5 533.5 336.3L533.5 326.1C533.5 323.9 532 322.3 530.1 321.6L530.1 314.2ZM528.3 324.4C528.3 324.4 528.4 324.4 528.5 324.4 529.4 324.4 530.1 325.1 530.1 326.1L530.1 336.3C530.1 337.2 529.4 337.9 528.5 337.9 528.4 337.9 528.4 337.9 528.3 337.9 528.3 337.9 528.3 337.9 528.3 337.9 527.4 337.9 526.6 337.2 526.7 336.3L526.7 326.1C526.7 325.1 527.3 324.4 528.3 324.4L528.3 324.4ZM501.1 352.3L528.1 352.3C528.3 352.3 528.4 352.3 528.6 352.3L555.6 352.3 555.9 369.7C555.9 384.7 543.8 396.9 528.7 396.9 513.7 396.9 501.5 384.7 501.5 369.7L501.1 352.3Z" vector-effect="non-scaling-stroke" class="e"/><path d="M47.4 350.2L40.9 350.2C37.7 350.2 35.1 350.3 35.1 347.1 35.1 343.9 37.7 343.3 40.9 343.3L47.4 343.3C50.5 343.3 53.2 343.8 53.2 347.1 53.1 350.3 50.5 350.2 47.4 350.2ZM268.5 195.3L18.4 195.3C6.6 195.3 0.8 203.2 0.8 215.4L0 358.1C0 370.3 6.6 376.3 18.4 376.3L126 375.3 126 407.3 91.5 407.3C88.3 407.3 85.7 407.4 85.7 410.6 85.7 413.8 88.3 415.3 91.5 415.3L195.3 415.3C198.6 415.3 201.2 413.8 201.2 410.6 201.2 407.4 198.6 407.3 195.3 407.3L160.4 407.3 160.4 375.3 268.5 375.3C280.2 375.3 286.8 368.9 286.8 356.7L286.8 215C286.8 202.8 280.3 195.3 268.5 195.3ZM148.9 407.3L137.7 407.3 137.7 375.3 148.9 375.3 148.9 407.3ZM268.5 366.7L18.4 368.1C13 368.1 7.8 362.5 7.8 356.7L7.8 350.2 22.5 350.3C25.7 350.3 28.3 350.3 28.3 347.1 28.3 343.9 25.7 342.8 22.5 342.8L7.8 342.8 7.8 215C7.8 209.1 12.9 203.4 18.4 203.4L268.5 203.4C273.8 203.4 279.5 209.6 279.5 215.4L279.5 342.8 72.2 343.3C68.9 343.3 66.3 343.9 66.3 347.2 66.3 350.4 69.5 350.2 72.7 350.2L279.5 351.5 279.5 356.7C279.5 362.5 273.9 366.7 268.5 366.7L268.5 366.7Z" vector-effect="non-scaling-stroke" style="fill:rgb(101,201,255);stroke-width:0.5;stroke:rgb(101,201,255)"/><path d="M182.9 281.8L193.5 281.8 193.5 309.9C191 310.8 189.3 313.2 189.2 315.9 189.2 319.4 192.1 322.2 195.6 322.2 199.2 322.2 202 319.4 202 315.9 202 313.1 200.2 310.7 197.8 309.9L197.8 286C203.6 296.8 214.7 304.4 227.6 305.1L227.6 315.9 253.1 315.9 253.1 290.3 227.6 290.3 227.6 300.8C215.7 300 205.2 292.7 200.4 281.8L208.4 281.8 208.4 256.2 200.4 256.2C205.1 245.6 215.4 238 227.6 237.2L227.6 247.7 253.1 247.7 253.1 222.1 227.6 222.1 227.6 232.9C214.7 233.6 203.6 241.1 197.8 252L197.8 228.1C200.2 227.2 202 224.9 202 222.1 202 218.6 199.2 215.7 195.6 215.7 192.1 215.7 189.2 218.6 189.2 222.1 189.2 224.9 191 227.2 193.5 228.1L193.5 256.2 182.9 256.2 182.9 281.8ZM187.1 277.5L187.1 260.5 194.9 260.5C195.3 260.6 195.8 260.6 196.2 260.5L204.2 260.5 204.2 277.5 196 277.5C195.8 277.5 195.5 277.5 195.2 277.5L187.1 277.5ZM231.8 311.6L231.8 294.6 248.9 294.6 248.9 311.6 231.8 311.6ZM231.8 243.4L231.8 226.4 248.9 226.4 248.9 243.4 231.8 243.4Z" vector-effect="non-scaling-stroke" class="b"/><path d="M37.7 215.7C29.5 215.7 22.7 222.5 22.7 230.8L22.7 326.1 153.1 326.1 153.1 230.8C153.1 222.5 146.3 215.7 138 215.7L37.7 215.7ZM37.7 223.3L43.8 223.3 43.8 237.2 29.8 237.2 29.8 230.8C29.8 228 34.9 223.3 37.7 223.3ZM52.8 223.3L62.8 223.3 62.8 237.2 52.8 237.2 52.8 223.3ZM72.2 223.3L138 223.3C140.9 223.3 145.8 228 145.8 230.8L145.8 237.3 72.2 237.2 72.2 223.3ZM29.8 244.3L145.8 245.3 145.8 319.6 29.8 319 29.8 244.3Z" class="a"/><path d="M711.3 285.9C710.1 285.9 707.8 286.1 706.9 287L700.3 294.2C700 294.4 700.6 293.8 700.3 294.2L678.6 316.2C676.7 318 676.2 321.5 678 323.4L706.9 352.7C708.8 354.6 714.2 354.6 716 352.7L744.9 324.1C746.7 322.2 746.7 318 744.9 316.2L715.2 287C714.3 286.1 712.6 285.9 711.3 285.9ZM711.3 290.9L740.5 320 711.3 349.2 682.2 320 702.3 299.8 706.6 304.1C706.5 304.5 706.4 305 706.4 305.4 706.4 307.2 707.4 308.7 708.9 309.6L708.9 330.4C707.4 331.3 706.4 332.8 706.4 334.6 706.4 337.3 708.6 339.5 711.3 339.5 714 339.5 716.2 337.3 716.2 334.6 716.2 332.8 715.2 331.3 713.7 330.4L713.7 311.3 721.2 318.8C720.8 320.3 721.1 321.8 722.1 323 723 324.2 724.4 324.9 725.9 324.9 728.6 324.9 730.8 322.7 730.8 320 730.8 318.5 730.1 317.1 728.9 316.2 727.7 315.2 726.2 314.9 724.7 315.3L716 306.6C716.4 305.2 716.1 303.6 715.2 302.4 714.2 301.2 712.8 300.5 711.3 300.5 710.9 300.5 710.4 300.6 710 300.7L705.8 296.4 711.3 290.9Z" vector-effect="non-scaling-stroke" class="b"/><path d="M789.5 285.9C785.5 285.9 781.7 289.4 781.7 293.4 781.7 296.8 784.8 299.9 788 300.5L788 334.4C784.8 335 781.7 338.5 781.7 342 781.7 345.9 785.5 349.9 789.5 349.9 793.4 349.9 797.3 345.9 797.3 342 797.3 338.6 794.2 335.1 790.9 334.4 791.2 329.5 793 328 795.6 326.3 798.4 324.5 802.6 323.5 806.8 322.8 811.1 322.1 816 321.3 819.6 319 822.9 316.9 824.8 313.2 825.1 307.5 828.4 306.9 831 303.9 831 300.4 831 296.5 827.7 293.1 823.8 293.1 819.9 293.1 816.6 296.6 816.6 300.5 816.6 304 819.1 306.9 822.3 307.5 822 312.4 820.4 314.5 817.8 316.2 814.9 318 810.7 318.9 806.4 319.6 802.1 320.3 797.3 321.3 793.8 323.5 792.5 324.3 791.8 325.2 790.9 326.3L790.9 300.5C794.1 299.9 796.7 296.8 796.7 293.4 796.7 289.4 793.4 285.9 789.5 285.9ZM789.5 289.1C791.8 289.1 793.8 291 793.8 293.4 793.8 295.8 791.8 297.7 789.5 297.7 787.1 297.7 785.2 295.8 785.2 293.4 785.2 291 787.1 289.1 789.5 289.1ZM823.8 296.1C826.2 296.1 828 298 828 300.4 828 302.8 826.2 304.6 823.8 304.6 821.4 304.6 819.6 302.9 819.6 300.5 819.6 298.1 821.4 296.1 823.8 296.1ZM789.5 337.7C791.8 337.7 793.8 339.6 793.8 342 793.8 344.4 791.8 346.3 789.5 346.3 787.1 346.3 785.2 344.4 785.2 342 785.2 339.6 787.1 337.7 789.5 337.7Z" vector-effect="non-scaling-stroke" class="e"/><path d="M338.7 128.4L392.5 128.4C400.1 128.4 406.3 134.6 406.3 142.1L406.3 259C406.3 266.6 400.1 272.7 392.5 272.7L338.7 272.7C331.2 272.7 325 266.6 325 259L325 142.1C325 134.6 331.2 128.4 338.7 128.4Z" class="d"/><path d="M338.7 128.4L392.5 128.4C400.1 128.4 406.3 134.6 406.3 142.1L406.3 259C406.3 266.6 400.1 272.7 392.5 272.7L338.7 272.7C331.2 272.7 325 266.6 325 259L325 142.1C325 134.6 331.2 128.4 338.7 128.4Z" class="c"/><circle vector-effect="non-scaling-stroke" cx="367.1" cy="261.8" r="5.2" class="a"/><path d="M346.5 134.9L387.8 134.9C389.2 134.9 390.4 136 390.4 137.4L390.4 137.4C390.4 138.9 389.2 140 387.8 140L346.5 140C345 140 343.9 138.9 343.9 137.4L343.9 137.4C343.9 136 345 134.9 346.5 134.9Z" fill="#65C9FF"/><path d="M357.5 214.3L349.9 206.7C348.4 205.2 348.4 202.6 349.9 201.1L357.5 193.5C358.3 192.7 358.3 191.4 357.5 190.6L356.7 189.9C356 189.1 354.7 189.1 353.9 189.9L342.7 201.1C341.2 202.6 341.2 205.2 342.7 206.7L353.9 217.9C354.7 218.7 356 218.7 356.7 217.9L357.5 217.2C358.3 216.4 358.3 215.1 357.5 214.3ZM373.7 214.3L381.3 206.7C382.9 205.2 382.9 202.6 381.3 201.1L373.7 193.5C373 192.7 373 191.4 373.7 190.6L374.5 189.9C375.3 189.1 376.6 189.1 377.3 189.9L388.5 201.1C390.1 202.6 390.1 205.2 388.5 206.7L377.3 217.9C376.6 218.7 375.3 218.7 374.5 217.9L373.7 217.2C373 216.4 373 215.1 373.7 214.3Z" vector-effect="non-scaling-stroke" class="f"/><rect x="328.3" y="143" width="74.6" height="6" transform="matrix(1 0 0 1 0 0)" class="a"/><rect x="328" y="248" width="74.9" height="6" transform="matrix(1 0 0 1 0 0)" class="a"/><path d="M993.6 310.1L989.3 310.1 985.8 294C985.6 293.2 984.8 292.5 983.8 292.5L936.9 292.5C936 292.5 935.2 293.2 935 294L931.4 310.1 927.1 310.1C926 310.1 925.2 310.9 925.2 312L925.2 329.5C925.2 330.6 926 331.5 927.1 331.5L929.1 331.5 931 405.6C931.1 406.7 931.9 407.5 933 407.5L933 413.8C933 414.8 933.9 415.7 935 415.7L985.9 415.7C986.9 415.7 987.8 414.8 987.8 413.8L987.8 407.5C988.8 407.5 989.7 406.7 989.7 405.6L991.6 331.5 993.6 331.5C994.7 331.5 995.6 330.6 995.6 329.5L995.6 312C995.6 310.9 994.7 310.1 993.6 310.1ZM938.5 296.4L982.3 296.4 985.3 310.1 935.4 310.1 938.5 296.4ZM983.9 411.8L936.9 411.8 936.9 407.5 983.8 407.5 983.9 411.8ZM985.9 403.6L934.9 403.6 933 331.5 966.2 331.5 966.2 338.2 957.4 343.5C956.8 343.8 956.5 344.5 956.5 345.1L956.5 372.4C956.5 373.5 957.3 374.4 958.4 374.4L978 374.4C979.1 374.4 979.9 373.5 979.9 372.4L979.9 345.1C979.9 344.5 979.6 343.8 979 343.5L970.2 338.2 970.2 331.5 987.7 331.5 985.9 403.6ZM968.2 341.6L976 346.2 976 370.5 960.4 370.5 960.4 346.2 968.2 341.6ZM991.7 327.6L929.1 327.6 929.1 314 991.7 314 991.7 327.6Z" vector-effect="non-scaling-stroke" class="f"/><path d="M966.7 366.8L969.2 366.8C970.5 366.8 971.6 365.7 971.6 364.4 971.6 363 970.5 362 969.2 362L966.7 362C965.4 362 964.3 363 964.3 364.4 964.3 365.7 965.4 366.8 966.7 366.8Z" class="a"/><path d="M960.6 391.4L936.2 391.4C935 391.4 934 392.4 934 393.6 934 394.8 935 395.8 936.2 395.8L960.6 395.8C961.9 395.8 962.9 394.8 962.9 393.6 962.9 392.4 961.9 391.4 960.6 391.4Z" class="a"/><path d="M969.4 391.4L967.2 391.4C966 391.4 965 392.4 965 393.6 965 394.8 966 395.8 967.2 395.8L969.4 395.8C970.6 395.8 971.6 394.8 971.6 393.6 971.6 392.4 970.6 391.4 969.4 391.4Z" class="a"/><path d="M965.1 317C963.9 317 962.9 318 962.9 319.3 962.9 320.5 963.9 321.5 965.1 321.5L992.4 321.5C993.7 321.5 994.7 320.5 994.7 319.3 994.7 318 993.7 317 992.4 317L965.1 317Z" class="a"/><path d="M959 317L956.8 317C955.5 317 954.5 318 954.5 319.3 954.5 320.5 955.5 321.5 956.8 321.5L959 321.5C960.3 321.5 961.3 320.5 961.3 319.3 961.3 318 960.3 317 959 317Z" class="a"/></g></svg>
