<?xml version="1.0" encoding="iso-8859-1"?>
<!-- Generator: Adobe Illustrator 19.0.0, SVG Export Plug-In . SVG Version: 6.00 Build 0)  -->
<svg version="1.1" id="Capa_1" xmlns="http://www.w3.org/2000/svg" xmlns:xlink="http://www.w3.org/1999/xlink" x="0px" y="0px"
	 viewBox="0 0 512 512" style="enable-background:new 0 0 512 512;" xml:space="preserve">
<path style="fill:#E7ECED;" d="M481.103,512H30.897C13.833,512,0,498.167,0,481.103V83.862c0-17.064,13.833-30.897,30.897-30.897
	h450.207c17.064,0,30.897,13.833,30.897,30.897v397.241C512,498.167,498.167,512,481.103,512z"/>
<rect x="35.31" y="141.241" style="fill:#DD352E;" width="441.379" height="335.448"/>
<g>
	<path style="fill:#28384C;" d="M512,105.931H0V30.897C0,13.833,13.833,0,30.897,0h450.207C498.167,0,512,13.833,512,30.897V105.931
		z"/>
	<rect x="35.31" y="35.31" style="fill:#DD352E;" width="35.31" height="35.31"/>
	<rect x="105.931" y="35.31" style="fill:#EBBA16;" width="35.31" height="35.31"/>
	<rect x="176.552" y="35.31" style="fill:#23A24D;" width="35.31" height="35.31"/>
</g>
<g>
	<path style="fill:#7383BF;" d="M132.414,353.103c-4.873,0-8.828-3.946-8.828-8.828c0-58.412,47.519-105.931,105.931-105.931
		c4.873,0,8.828,3.946,8.828,8.828S234.39,256,229.517,256c-48.675,0-88.276,39.601-88.276,88.276
		C141.241,349.158,137.287,353.103,132.414,353.103z"/>
	<path style="fill:#7383BF;" d="M379.586,353.103c-4.873,0-8.828-3.946-8.828-8.828c0-48.675-39.601-88.276-88.276-88.276
		c-4.873,0-8.828-3.946-8.828-8.828s3.955-8.828,8.828-8.828c58.412,0,105.931,47.519,105.931,105.931
		C388.414,349.158,384.459,353.103,379.586,353.103z"/>
	<path style="fill:#7383BF;" d="M229.517,256H105.931c-4.873,0-8.828-3.946-8.828-8.828s3.955-8.828,8.828-8.828h123.586
		c4.873,0,8.828,3.946,8.828,8.828S234.39,256,229.517,256z"/>
	<path style="fill:#7383BF;" d="M406.069,256H282.483c-4.873,0-8.828-3.946-8.828-8.828s3.955-8.828,8.828-8.828h123.586
		c4.873,0,8.828,3.946,8.828,8.828S410.942,256,406.069,256z"/>
</g>
<g>
	<path style="fill:#B02721;" d="M70.621,220.69c-4.873,0-8.828-3.946-8.828-8.828v-35.31c0-4.882,3.955-8.828,8.828-8.828h35.31
		c4.873,0,8.828,3.946,8.828,8.828s-3.955,8.828-8.828,8.828H79.448v26.483C79.448,216.744,75.494,220.69,70.621,220.69z"/>
	<path style="fill:#B02721;" d="M441.379,450.207h-35.31c-4.873,0-8.828-3.946-8.828-8.828c0-4.882,3.955-8.828,8.828-8.828h26.483
		v-26.483c0-4.882,3.955-8.828,8.828-8.828s8.828,3.946,8.828,8.828v35.31C450.207,446.261,446.252,450.207,441.379,450.207z"/>
</g>
<path style="fill:#EBBA16;" d="M256,308.966l-52.966,52.966c14.636,0,35.31,20.674,35.31,35.31h35.31
	c0-14.636,20.674-35.31,35.31-35.31L256,308.966z"/>
<g>
	<rect x="238.345" y="397.241" style="fill:#B78D16;" width="35.31" height="35.31"/>
	<path style="fill:#B78D16;" d="M256,308.966l-8.828,8.828v26.483c0,4.882,3.955,8.828,8.828,8.828s8.828-3.946,8.828-8.828v-26.483
		L256,308.966z"/>
</g>
<g>
	<rect x="105.931" y="344.276" style="fill:#FFFFFF;" width="52.966" height="52.966"/>
	<rect x="229.517" y="220.69" style="fill:#FFFFFF;" width="52.966" height="52.966"/>
	<rect x="353.103" y="344.276" style="fill:#FFFFFF;" width="52.966" height="52.966"/>
</g>
<g>
</g>
<g>
</g>
<g>
</g>
<g>
</g>
<g>
</g>
<g>
</g>
<g>
</g>
<g>
</g>
<g>
</g>
<g>
</g>
<g>
</g>
<g>
</g>
<g>
</g>
<g>
</g>
<g>
</g>
</svg>
